<svg width="33" height="30" viewBox="0 0 33 30" fill="none" xmlns="http://www.w3.org/2000/svg">
<path fill-rule="evenodd" clip-rule="evenodd" d="M4 4.4375C4 4.22201 4.0856 4.01535 4.23798 3.86298C4.39035 3.7106 4.59701 3.625 4.8125 3.625H7.25C7.43124 3.62505 7.60726 3.68569 7.75006 3.79729C7.89287 3.90889 7.99427 4.06502 8.03813 4.24087L8.69625 6.875H27.5625C27.6827 6.87507 27.8013 6.9018 27.9099 6.95325C28.0185 7.0047 28.1143 7.07959 28.1905 7.17254C28.2666 7.26548 28.3212 7.37416 28.3503 7.49075C28.3794 7.60733 28.3823 7.72892 28.3587 7.84675L26.7337 15.9717C26.6982 16.1489 26.6046 16.3092 26.4677 16.4272C26.3309 16.5452 26.1586 16.6143 25.9781 16.6234L10.708 17.3904L11.1744 19.875H25.125C25.3405 19.875 25.5472 19.9606 25.6995 20.113C25.8519 20.2653 25.9375 20.472 25.9375 20.6875C25.9375 20.903 25.8519 21.1097 25.6995 21.262C25.5472 21.4144 25.3405 21.5 25.125 21.5H10.5C10.3106 21.4998 10.1272 21.4335 9.98148 21.3124C9.83579 21.1913 9.73698 21.0232 9.70213 20.837L7.26625 7.86138L6.61625 5.25H4.8125C4.59701 5.25 4.39035 5.1644 4.23798 5.01202C4.0856 4.85965 4 4.65299 4 4.4375ZM9.04075 8.5L10.4057 15.7784L25.2648 15.0325L26.5713 8.5H9.04075ZM12.125 21.5C11.263 21.5 10.4364 21.8424 9.8269 22.4519C9.21741 23.0614 8.875 23.888 8.875 24.75C8.875 25.612 9.21741 26.4386 9.8269 27.0481C10.4364 27.6576 11.263 28 12.125 28C12.987 28 13.8136 27.6576 14.4231 27.0481C15.0326 26.4386 15.375 25.612 15.375 24.75C15.375 23.888 15.0326 23.0614 14.4231 22.4519C13.8136 21.8424 12.987 21.5 12.125 21.5ZM23.5 21.5C22.638 21.5 21.8114 21.8424 21.2019 22.4519C20.5924 23.0614 20.25 23.888 20.25 24.75C20.25 25.612 20.5924 26.4386 21.2019 27.0481C21.8114 27.6576 22.638 28 23.5 28C24.362 28 25.1886 27.6576 25.7981 27.0481C26.4076 26.4386 26.75 25.612 26.75 24.75C26.75 23.888 26.4076 23.0614 25.7981 22.4519C25.1886 21.8424 24.362 21.5 23.5 21.5ZM12.125 23.125C11.694 23.125 11.2807 23.2962 10.976 23.601C10.6712 23.9057 10.5 24.319 10.5 24.75C10.5 25.181 10.6712 25.5943 10.976 25.899C11.2807 26.2038 11.694 26.375 12.125 26.375C12.556 26.375 12.9693 26.2038 13.274 25.899C13.5788 25.5943 13.75 25.181 13.75 24.75C13.75 24.319 13.5788 23.9057 13.274 23.601C12.9693 23.2962 12.556 23.125 12.125 23.125ZM23.5 23.125C23.069 23.125 22.6557 23.2962 22.351 23.601C22.0462 23.9057 21.875 24.319 21.875 24.75C21.875 25.181 22.0462 25.5943 22.351 25.899C22.6557 26.2038 23.069 26.375 23.5 26.375C23.931 26.375 24.3443 26.2038 24.649 25.899C24.9538 25.5943 25.125 25.181 25.125 24.75C25.125 24.319 24.9538 23.9057 24.649 23.601C24.3443 23.2962 23.931 23.125 23.5 23.125Z" fill="#777E90"/>
</svg>
