<svg width="24" height="22" viewBox="0 0 24 22" fill="none" xmlns="http://www.w3.org/2000/svg">
<path d="M2 0H3.99C4.4944 9.25758e-05 4.98015 0.190772 5.34991 0.533837C5.71968 0.876903 5.94617 1.34702 5.984 1.85L5.99 2V20C5.98965 20.5045 5.79876 20.9902 5.45553 21.36C5.1123 21.7297 4.64208 21.9562 4.139 21.994L3.989 22H2C1.49566 21.9997 1.01005 21.8089 0.640333 21.4659C0.270614 21.1229 0.0440584 20.6529 0.00600014 20.15L1.00268e-07 20V2C-0.000159579 1.49542 0.190406 1.00943 0.533497 0.639452C0.876588 0.269471 1.34684 0.0428433 1.85 0.00500011L2 0ZM8.995 0H10.99C11.4944 9.25758e-05 11.9801 0.190772 12.3499 0.533837C12.7197 0.876903 12.9462 1.34702 12.984 1.85L12.99 2V20C12.9897 20.5045 12.7988 20.9902 12.4555 21.36C12.1123 21.7297 11.6421 21.9562 11.139 21.994L10.989 22H8.995C8.49042 22.0002 8.00443 21.8096 7.63445 21.4665C7.26447 21.1234 7.03784 20.6532 7 20.15L6.995 20V2C6.99484 1.49542 7.18541 1.00943 7.5285 0.639452C7.87159 0.269471 8.34184 0.0428433 8.845 0.00500011L8.995 0ZM18.13 2.026C18.974 2.026 19.746 2.564 20.023 3.386L20.069 3.543L23.929 19.026C24.0514 19.5156 23.9843 20.0334 23.7409 20.4755C23.4976 20.9177 23.0961 21.2515 22.617 21.41L22.473 21.451L20.51 21.941C20.0228 22.0619 19.508 21.9953 19.0676 21.7546C18.6272 21.5138 18.2932 21.1163 18.132 20.641L18.086 20.483L14.226 5C14.1039 4.51042 14.1713 3.99277 14.4148 3.55083C14.6583 3.10889 15.0599 2.77533 15.539 2.617L15.682 2.575L17.645 2.086C17.807 2.046 17.97 2.026 18.13 2.026ZM3.99 1.5H2C1.88308 1.50035 1.76995 1.5415 1.68013 1.61635C1.5903 1.6912 1.52943 1.79506 1.508 1.91L1.5 2V20C1.5 20.244 1.678 20.45 1.91 20.492L2 20.5H3.99C4.235 20.5 4.44 20.322 4.482 20.09L4.49 20V2C4.48984 1.88303 4.44876 1.7698 4.37388 1.67993C4.299 1.59007 4.19503 1.52925 4.08 1.508L3.99 1.5ZM10.99 1.5H8.995C8.87803 1.50016 8.7648 1.54124 8.67493 1.61612C8.58507 1.69101 8.52425 1.79497 8.503 1.91L8.495 2V20C8.495 20.244 8.672 20.45 8.905 20.492L8.995 20.5H10.99C11.235 20.5 11.44 20.322 11.482 20.09L11.49 20V2C11.4898 1.88303 11.4488 1.7698 11.3739 1.67993C11.299 1.59007 11.195 1.52925 11.08 1.508L10.99 1.5ZM18.13 3.526L18.069 3.53L18.007 3.541L16.045 4.031C15.9315 4.05932 15.8314 4.12657 15.7624 4.22104C15.6933 4.31551 15.6595 4.43121 15.667 4.548L15.681 4.636L19.541 20.12C19.606 20.38 19.838 20.5 20.025 20.5L20.087 20.497L20.147 20.484L22.11 19.995C22.2234 19.9667 22.3233 19.8996 22.3923 19.8054C22.4614 19.7111 22.4952 19.5956 22.488 19.479L22.474 19.389L18.614 3.905C18.5874 3.79678 18.5252 3.70062 18.4375 3.63191C18.3497 3.5632 18.2414 3.5259 18.13 3.526Z" fill="#777E90"/>
</svg>
