<svg width="21" height="23" viewBox="0 0 21 23" fill="none" xmlns="http://www.w3.org/2000/svg">
<path d="M9.82629 22.4998C10.2403 22.4902 10.6377 22.3337 10.948 22.0578C11.2583 21.782 11.4617 21.4047 11.5221 20.9926H8.06479C8.12688 21.4159 8.33974 21.8021 8.66377 22.0793C8.98779 22.3566 9.40092 22.506 9.82629 22.4998Z" fill="#777E90"/>
<path d="M19.3634 18.236C18.7296 17.6678 18.1747 17.0163 17.7136 16.2991C17.2103 15.3093 16.9086 14.2282 16.8263 13.1195V9.85389C16.8236 9.45722 16.7884 9.06146 16.7211 8.6706C16.2038 8.5666 15.7066 8.37908 15.2488 8.11532C15.4233 8.68042 15.512 9.26878 15.5117 9.8605V13.1261C15.5923 14.4786 15.9622 15.7977 16.5962 16.9933C17.05 17.7164 17.5885 18.3823 18.2 18.9764H1.36714C1.97867 18.3823 2.51711 17.7164 2.97089 16.9933C3.60491 15.7977 3.97484 14.4786 4.0554 13.1261V9.85389C4.05194 9.08884 4.19856 8.33063 4.48686 7.62265C4.77517 6.91468 5.19949 6.27085 5.73554 5.72804C6.27159 5.18523 6.90884 4.75409 7.61079 4.45931C8.31274 4.16454 9.06561 4.01192 9.82629 4.01019C10.9396 4.01108 12.0278 4.3422 12.9549 4.9621C12.8527 4.58463 12.7954 4.19631 12.784 3.80526V3.3888C12.0977 3.04925 11.3605 2.82591 10.6019 2.72775V1.89482C10.6019 1.66077 10.5094 1.4363 10.3449 1.2708C10.1803 1.10529 9.95713 1.01232 9.72441 1.01232C9.49169 1.01232 9.26851 1.10529 9.10395 1.2708C8.93939 1.4363 8.84695 1.66077 8.84695 1.89482V2.7608C7.14836 3.00179 5.5938 3.85269 4.47029 5.15641C3.34677 6.46013 2.73015 8.12863 2.73427 9.85389V13.1195C2.65195 14.2282 2.35028 15.3093 1.84695 16.2991C1.39401 17.0146 0.848015 17.666 0.223474 18.236C0.153363 18.298 0.0971727 18.3742 0.0586406 18.4597C0.0201084 18.5452 0.000118176 18.638 0 18.7318V19.6308C0 19.8062 0.0692486 19.9743 0.192512 20.0983C0.315775 20.2223 0.482956 20.2919 0.657277 20.2919H18.9296C19.1039 20.2919 19.2711 20.2223 19.3943 20.0983C19.5176 19.9743 19.5869 19.8062 19.5869 19.6308V18.7318C19.5867 18.638 19.5667 18.5452 19.5282 18.4597C19.4897 18.3742 19.4335 18.298 19.3634 18.236Z" fill="#777E90"/>
<path d="M17.7136 7.11052C19.5286 7.11052 21 5.63071 21 3.80526C21 1.97982 19.5286 0.5 17.7136 0.5C15.8986 0.5 14.4272 1.97982 14.4272 3.80526C14.4272 5.63071 15.8986 7.11052 17.7136 7.11052Z" fill="#777E90"/>
</svg>
