<svg width="23" height="17" viewBox="0 0 23 17" fill="none" xmlns="http://www.w3.org/2000/svg">
<path d="M17.9481 7.79167L16.6339 5.09082L13.6875 3.88612L16.6339 2.68142L17.9481 0L19.2623 2.68142L22.1875 3.88612L19.2623 5.09082L17.9481 7.79167Z" fill="#777E90"/>
<path d="M12.6251 0H3.0625C1.8889 0 0.9375 0.951395 0.9375 2.125V14.875C0.9375 16.0486 1.8889 17 3.0625 17H20.7708C21.9444 17 22.8958 16.0486 22.8958 14.875V8.85433H21.4792V14.875C21.4792 15.2662 21.162 15.5833 20.7708 15.5833H3.0625C2.6713 15.5833 2.35417 15.2662 2.35417 14.875V2.125C2.35417 1.7338 2.6713 1.41667 3.0625 1.41667H12.6251V0Z" fill="#777E90"/>
</svg>
