<svg width="22" height="22" viewBox="0 0 22 22" fill="none" xmlns="http://www.w3.org/2000/svg">
<path d="M14.25 0.5C13.1959 0.499758 12.1565 0.746424 11.2149 1.22023C10.2734 1.69404 9.45589 2.38181 8.828 3.22844C8.2001 4.07506 7.77925 5.057 7.59917 6.09555C7.41909 7.13411 7.48479 8.20041 7.791 9.209L0 17V21.5H4.5L12.291 13.709C13.2194 13.9908 14.1977 14.0692 15.1591 13.9387C16.1206 13.8083 17.0426 13.4721 17.8624 12.953C18.6821 12.434 19.3804 11.7444 19.9095 10.9311C20.4386 10.1178 20.7862 9.20001 20.9285 8.24025C21.0709 7.28049 21.0046 6.30132 20.7343 5.36948C20.464 4.43764 19.996 3.57502 19.3622 2.84042C18.7283 2.10582 17.9436 1.51649 17.0614 1.11261C16.1792 0.708724 15.2203 0.499775 14.25 0.5ZM14.25 12.5C13.7336 12.4997 13.2201 12.4234 12.726 12.2735L11.8657 12.0125L8.84475 15.0335L7.8105 14L6.75 15.0605L7.78425 16.0947L6.59475 17.2843L5.5605 16.25L4.5 17.3105L5.53425 18.3447L3.879 20H1.5V17.621L9.4875 9.63425L9.2265 8.774C8.90594 7.71724 8.92676 6.58631 9.28601 5.54207C9.64526 4.49784 10.3246 3.59347 11.2275 2.95762C12.1304 2.32177 13.2108 1.98681 14.315 2.0004C15.4192 2.01398 16.4911 2.37542 17.378 3.03329C18.265 3.69116 18.9219 4.61197 19.2554 5.66473C19.5888 6.71749 19.5818 7.84859 19.2354 8.89714C18.8889 9.94569 18.2206 10.8583 17.3256 11.5051C16.4305 12.152 15.3543 12.5001 14.25 12.5Z" fill="#777E90"/>
<path d="M15 8C15.8284 8 16.5 7.32843 16.5 6.5C16.5 5.67157 15.8284 5 15 5C14.1716 5 13.5 5.67157 13.5 6.5C13.5 7.32843 14.1716 8 15 8Z" fill="#777E90"/>
</svg>
