<svg width="42" height="43" viewBox="0 0 42 43" fill="none" xmlns="http://www.w3.org/2000/svg">
<path d="M16.0177 9.68931C18.2349 5.61865 19.3427 3.58331 20.9999 3.58331C22.6572 3.58331 23.7649 5.61865 25.9822 9.68931L26.5562 10.7428C27.1862 11.9002 27.5012 12.4789 27.9912 12.8606C28.4812 13.2422 29.0937 13.3837 30.3187 13.6668L31.4317 13.9248C35.7367 14.9228 37.8874 15.4209 38.4002 17.1068C38.9112 18.791 37.4447 20.5486 34.5099 24.0621L33.7504 24.9704C32.9174 25.9684 32.4992 26.4683 32.3119 27.0846C32.1247 27.7027 32.1877 28.3692 32.3137 29.7004L32.4292 30.9134C32.8719 35.6022 33.0942 37.9457 31.7537 38.9866C30.4132 40.0294 28.3972 39.078 24.3687 37.1788L23.3239 36.6879C22.1794 36.1468 21.6072 35.8781 20.9999 35.8781C20.3927 35.8781 19.8204 36.1468 18.6742 36.6879L17.6329 37.1788C13.6027 39.078 11.5867 40.0276 10.2479 38.9884C8.90567 37.9457 9.12792 35.6022 9.57067 30.9134L9.68617 29.7022C9.81217 28.3692 9.87517 27.7027 9.68617 27.0864C9.50067 26.4683 9.08242 25.9684 8.24942 24.9722L7.48992 24.0621C4.55517 20.5504 3.08867 18.7928 3.59967 17.1068C4.11242 15.4209 6.26492 14.921 10.5699 13.9248L11.6829 13.6668C12.9062 13.3837 13.5169 13.2422 14.0087 12.8606C14.4987 12.4789 14.8137 11.9002 15.4437 10.7428L16.0177 9.68931Z" fill="url(#paint0_linear_329_3280)"/>
<defs>
<linearGradient id="paint0_linear_329_3280" x1="6.2582" y1="3.58332" x2="36.8184" y2="4.83973" gradientUnits="userSpaceOnUse">
<stop stop-color="#497CFB"/>
<stop offset="0.255208" stop-color="#279CF9"/>
<stop offset="0.598958" stop-color="#7D50E9"/>
<stop offset="0.84375" stop-color="#BF5BB5"/>
<stop offset="0.979167" stop-color="#A148E1"/>
</linearGradient>
</defs>
</svg>
