<svg width="280" height="48" viewBox="0 0 280 48" fill="none" xmlns="http://www.w3.org/2000/svg">
<path d="M5.68723 17.9274V29.4023H11.3745C12.1539 29.4023 12.8871 29.2557 13.5741 28.9625C14.261 28.656 14.8621 28.2428 15.3773 27.723C15.8926 27.2033 16.2955 26.5969 16.5861 25.9038C16.89 25.1975 17.0419 24.4512 17.0419 23.6648C17.0419 22.8785 16.89 22.1389 16.5861 21.4458C16.2955 20.7395 15.8926 20.1264 15.3773 19.6066C14.8621 19.0869 14.261 18.6804 13.5741 18.3872C12.8871 18.0807 12.1539 17.9274 11.3745 17.9274H5.68723ZM5.68723 40.8572H0V12.1899H11.3745C12.4181 12.1899 13.4221 12.3299 14.3865 12.6098C15.3509 12.8763 16.2492 13.2628 17.0815 13.7692C17.927 14.2624 18.6932 14.8621 19.3802 15.5684C20.0804 16.2615 20.6749 17.0345 21.1636 17.8874C21.6657 18.7404 22.0488 19.6533 22.313 20.6262C22.5904 21.5991 22.7291 22.612 22.7291 23.6648C22.7291 25.2375 22.4319 26.7235 21.8374 28.1229C21.2429 29.5089 20.4305 30.7217 19.4 31.7612C18.3696 32.8008 17.1608 33.6204 15.7737 34.2201C14.3997 34.8199 12.9333 35.1197 11.3745 35.1197H5.68723V40.8572Z" fill="url(#paint0_linear_375_750)"/>
<path d="M45.9735 40.8572H26.0781V12.1899H31.7653V35.1197H45.9735V40.8572Z" fill="url(#paint1_linear_375_750)"/>
<path d="M65.6707 29.4023V23.6648C65.6707 22.8785 65.5188 22.1389 65.215 21.4458C64.9243 20.7395 64.5214 20.1264 64.0062 19.6066C63.4909 19.0869 62.8832 18.6804 62.1831 18.3872C61.4961 18.0807 60.7629 17.9274 59.9835 17.9274C59.204 17.9274 58.4642 18.0807 57.7641 18.3872C57.0771 18.6804 56.476 19.0869 55.9608 19.6066C55.4456 20.1264 55.0361 20.7395 54.7322 21.4458C54.4416 22.1389 54.2962 22.8785 54.2962 23.6648V29.4023H65.6707ZM71.358 40.8572H65.6707V35.1197H54.2962V40.8572H48.6288V23.6648C48.6288 22.0789 48.9261 20.5929 49.5206 19.2068C50.115 17.8074 50.9209 16.588 51.9381 15.5485C52.9686 14.5089 54.1707 13.6893 55.5447 13.0895C56.9318 12.4898 58.4114 12.1899 59.9835 12.1899C61.5556 12.1899 63.0286 12.4898 64.4025 13.0895C65.7896 13.6893 66.9984 14.5089 68.0288 15.5485C69.0593 16.588 69.8717 17.8074 70.4662 19.2068C71.0607 20.5929 71.358 22.0789 71.358 23.6648V40.8572Z" fill="url(#paint2_linear_375_750)"/>
<path d="M88.7565 40.8572H83.0891V31.8812C81.8341 31.5613 80.6782 31.0482 79.6213 30.3419C78.5776 29.6355 77.6793 28.7959 76.9263 27.823C76.1733 26.8368 75.5854 25.7506 75.1627 24.5644C74.7531 23.365 74.5484 22.1055 74.5484 20.7861V12.1899H80.2356V20.7861C80.2356 21.5724 80.3809 22.3188 80.6715 23.0251C80.9754 23.7181 81.3849 24.3245 81.9001 24.8443C82.4154 25.3641 83.0165 25.7772 83.7034 26.0838C84.4036 26.377 85.1434 26.5236 85.9228 26.5236C86.7023 26.5236 87.4355 26.377 88.1224 26.0838C88.8226 25.7772 89.4303 25.3641 89.9455 24.8443C90.4607 24.3245 90.8637 23.7181 91.1543 23.0251C91.4581 22.3188 91.6101 21.5724 91.6101 20.7861V12.1899H97.2775V20.7861C97.2775 22.1055 97.0661 23.365 96.6434 24.5644C96.2338 25.7506 95.6526 26.8368 94.8995 27.823C94.1465 28.7959 93.2482 29.6355 92.2045 30.3419C91.1609 31.0482 90.0116 31.5613 88.7565 31.8812V40.8572Z" fill="url(#paint3_linear_375_750)"/>
<path d="M169.148 17.9274V29.4023H174.836C175.615 29.4023 176.348 29.2557 177.035 28.9625C177.722 28.656 178.323 28.2428 178.839 27.723C179.354 27.2033 179.757 26.5969 180.047 25.9038C180.351 25.1975 180.503 24.4512 180.503 23.6648C180.503 22.8785 180.351 22.1389 180.047 21.4458C179.757 20.7395 179.354 20.1264 178.839 19.6066C178.323 19.0869 177.722 18.6804 177.035 18.3872C176.348 18.0807 175.615 17.9274 174.836 17.9274H169.148ZM169.148 40.8572H163.461V12.1899H174.836C175.879 12.1899 176.883 12.3299 177.848 12.6098C178.812 12.8763 179.71 13.2628 180.543 13.7692C181.388 14.2624 182.154 14.8621 182.841 15.5684C183.542 16.2615 184.136 17.0345 184.625 17.8874C185.127 18.7404 185.51 19.6533 185.774 20.6262C186.052 21.5991 186.19 22.612 186.19 23.6648C186.19 25.2375 185.893 26.7235 185.299 28.1229C184.704 29.5089 183.892 30.7217 182.861 31.7612C181.831 32.8008 180.622 33.6204 179.235 34.2201C177.861 34.8199 176.395 35.1197 174.836 35.1197H169.148V40.8572Z" fill="url(#paint4_linear_375_750)"/>
<path d="M195.227 17.9274V29.4023H200.914C201.693 29.4023 202.426 29.2557 203.113 28.9625C203.8 28.656 204.401 28.2428 204.917 27.723C205.432 27.2033 205.835 26.5969 206.125 25.9038C206.429 25.1975 206.581 24.4512 206.581 23.6648C206.581 22.8785 206.429 22.1389 206.125 21.4458C205.835 20.7395 205.432 20.1264 204.917 19.6066C204.401 19.0869 203.8 18.6804 203.113 18.3872C202.426 18.0807 201.693 17.9274 200.914 17.9274H195.227ZM195.227 40.8572H189.539V12.1899H200.914C201.957 12.1899 202.961 12.3299 203.926 12.6098C204.89 12.8763 205.789 13.2628 206.621 13.7692C207.466 14.2624 208.232 14.8621 208.919 15.5684C209.62 16.2615 210.214 17.0345 210.703 17.8874C211.205 18.7404 211.588 19.6533 211.852 20.6262C212.13 21.5991 212.268 22.612 212.268 23.6648C212.268 24.6511 212.143 25.6106 211.892 26.5436C211.654 27.4765 211.304 28.3627 210.842 29.2024C210.392 30.042 209.838 30.815 209.177 31.5213C208.517 32.2277 207.777 32.8408 206.958 33.3605L210.108 40.8572H204.065L201.587 35.0798L195.227 35.1197V40.8572Z" fill="url(#paint5_linear_375_750)"/>
<path d="M221.701 40.8572H216.014V12.1899H221.701V40.8572Z" fill="url(#paint6_linear_375_750)"/>
<path d="M225.327 20.7861C225.327 19.6 225.552 18.4871 226.001 17.4476C226.45 16.4081 227.058 15.5018 227.824 14.7288C228.604 13.9425 229.508 13.3228 230.539 12.8696C231.569 12.4165 232.672 12.1899 233.848 12.1899H246.887V17.9274H233.848C233.452 17.9274 233.082 18.0007 232.738 18.1473C232.395 18.2939 232.091 18.5005 231.827 18.767C231.576 19.0202 231.378 19.3201 231.232 19.6666C231.087 20.0131 231.014 20.3863 231.014 20.7861C231.014 21.1859 231.087 21.5658 231.232 21.9256C231.378 22.2721 231.576 22.5787 231.827 22.8452C232.091 23.0984 232.395 23.2983 232.738 23.4449C233.082 23.5915 233.452 23.6648 233.848 23.6648H239.535C240.711 23.6648 241.814 23.8914 242.845 24.3445C243.888 24.7843 244.793 25.3974 245.56 26.1837C246.339 26.9567 246.947 27.8696 247.383 28.9225C247.832 29.962 248.056 31.0749 248.056 32.261C248.056 33.4472 247.832 34.56 247.383 35.5995C246.947 36.6391 246.339 37.552 245.56 38.3383C244.793 39.1113 243.888 39.7244 242.845 40.1775C241.814 40.6306 240.711 40.8572 239.535 40.8572H226.913V35.1197H239.535C239.932 35.1197 240.302 35.0464 240.645 34.8998C240.989 34.7532 241.286 34.5533 241.537 34.3001C241.801 34.0336 242.006 33.727 242.151 33.3805C242.296 33.034 242.369 32.6608 242.369 32.261C242.369 31.8612 242.296 31.488 242.151 31.1415C242.006 30.795 241.801 30.4951 241.537 30.2419C241.286 29.9754 240.989 29.7688 240.645 29.6222C240.302 29.4756 239.932 29.4023 239.535 29.4023H233.848C232.672 29.4023 231.569 29.1757 230.539 28.7226C229.508 28.2695 228.604 27.6564 227.824 26.8834C227.058 26.0971 226.45 25.1842 226.001 24.1446C225.552 23.0918 225.327 21.9723 225.327 20.7861Z" fill="url(#paint7_linear_375_750)"/>
<path d="M280 40.8572H274.333V20.3863C274.333 19.9865 274.253 19.6133 274.095 19.2668C273.949 18.9203 273.745 18.6204 273.48 18.3672C273.229 18.1006 272.932 17.8941 272.589 17.7475C272.245 17.6009 271.875 17.5276 271.479 17.5276C271.083 17.5276 270.713 17.6009 270.369 17.7475C270.026 17.8941 269.722 18.1006 269.458 18.3672C269.207 18.6204 269.009 18.9203 268.863 19.2668C268.718 19.6133 268.645 19.9865 268.645 20.3863V40.8572H262.958V20.3863C262.958 19.9865 262.885 19.6133 262.74 19.2668C262.595 18.9203 262.39 18.6204 262.126 18.3672C261.875 18.1006 261.578 17.8941 261.234 17.7475C260.891 17.6009 260.521 17.5276 260.124 17.5276C259.728 17.5276 259.358 17.6009 259.015 17.7475C258.671 17.8941 258.367 18.1006 258.103 18.3672C257.852 18.6204 257.654 18.9203 257.509 19.2668C257.363 19.6133 257.291 19.9865 257.291 20.3863V40.8572H251.603V20.3863C251.603 19.2002 251.821 18.0873 252.257 17.0478C252.707 15.9949 253.314 15.082 254.08 14.309C254.86 13.5227 255.765 12.9096 256.795 12.4698C257.839 12.0167 258.949 11.7901 260.124 11.7901C261.181 11.7901 262.198 11.9834 263.176 12.3699C264.154 12.743 265.032 13.2895 265.812 14.0091C266.591 13.2895 267.463 12.743 268.427 12.3699C269.405 11.9834 270.422 11.7901 271.479 11.7901C272.655 11.7901 273.758 12.0167 274.788 12.4698C275.832 12.9096 276.737 13.5227 277.503 14.309C278.283 15.082 278.89 15.9949 279.326 17.0478C279.775 18.0873 280 19.2002 280 20.3863V40.8572Z" fill="url(#paint8_linear_375_750)"/>
<path d="M151.372 47.1481L150.689 47.9462C150.185 48.0606 149.306 47.9686 148.791 47.8914C146.986 47.6205 145.498 47.4148 143.7 47.1035C135.559 45.6931 127.614 44.2511 119.473 42.8416C119.175 42.5816 118.887 42.537 118.588 42.277C118.37 41.8805 118.173 41.3995 118.003 41.0033C114.007 32.2536 109.649 22.7052 105.672 13.9467C105.421 13.3919 105.767 13.5243 105.65 12.9066C105.877 12.6407 106.111 12.3674 106.339 12.1012C106.766 11.98 107.187 11.8633 107.615 11.7448C121.329 7.95565 135.043 4.16563 148.76 0.385108C149.389 0.211333 150.042 0.12647 150.684 0C151.02 0.292387 151.356 0.585028 151.692 0.877415C151.717 1.16536 151.765 1.45315 151.762 1.74129C151.682 12.2357 151.599 22.7296 151.511 33.2238C151.472 37.8653 151.418 42.5069 151.372 47.1481ZM122.764 40.2036C131.33 41.6998 139.772 43.1741 148.262 44.657C148.358 31.8902 148.454 19.2349 148.55 6.39552C139.903 17.7331 131.372 28.9166 122.764 40.2036ZM145.999 4.43939C133.694 7.83908 121.586 11.1847 109.402 14.5512C113.018 22.4614 116.594 30.2832 120.219 38.2125C121.859 36.0942 123.41 34.1089 124.942 32.1089C126.96 29.4733 128.961 26.8245 130.974 24.1847C132.169 22.6163 133.378 21.058 134.572 19.4887C136.537 16.9062 138.49 14.3154 140.457 11.7344C141.697 10.1063 142.956 8.49239 144.199 6.86574C144.766 6.12314 145.313 5.36478 145.999 4.43939Z" fill="url(#paint9_linear_375_750)"/>
<path d="M134.735 31.7245C135.513 32.4017 136.693 32.3087 137.37 31.5167C138.048 30.7247 137.967 29.5337 137.189 28.8565C136.411 28.1793 135.232 28.2723 134.554 29.0643C133.876 29.8563 133.958 31.0473 134.735 31.7245Z" fill="url(#paint10_linear_375_750)"/>
<path d="M143.143 33.4221C143.921 34.0993 145.101 34.0063 145.778 33.2143C146.456 32.4224 146.375 31.2314 145.597 30.5541C144.819 29.8769 143.639 29.97 142.962 30.7619C142.284 31.5539 142.365 32.7449 143.143 33.4221Z" fill="url(#paint11_linear_375_750)"/>
<path d="M139.819 28.3182C140.596 28.9954 141.776 28.9023 142.454 28.1104C143.131 27.3184 143.05 26.1274 142.272 25.4502C141.495 24.773 140.315 24.866 139.637 25.658C138.96 26.4499 139.041 27.6409 139.819 28.3182Z" fill="url(#paint12_linear_375_750)"/>
<path d="M138.06 36.8282C138.838 37.5054 140.018 37.4124 140.695 36.6204C141.373 35.8284 141.292 34.6374 140.514 33.9602C139.736 33.283 138.556 33.376 137.879 34.168C137.201 34.9599 137.282 36.151 138.06 36.8282Z" fill="url(#paint13_linear_375_750)"/>
<path d="M126.622 25.7728C125.942 26.0816 125.179 25.946 124.654 25.4889C124.454 25.3154 124.289 25.0954 124.175 24.8354L122.949 22.0328L120.163 23.2976C119.224 23.7236 118.129 23.3049 117.716 22.3605C117.303 21.4161 117.729 20.3065 118.666 19.8795L121.452 18.6147L120.225 15.8121C119.812 14.8677 120.237 13.757 121.176 13.3311C122.114 12.9051 123.209 13.3249 123.623 14.2682L124.849 17.0708L127.635 15.806C128.574 15.38 129.669 15.7987 130.082 16.7431C130.382 17.4276 130.241 18.2003 129.783 18.7348C129.61 18.9377 129.391 19.107 129.132 19.2242L126.346 20.4889L127.573 23.2915C127.986 24.236 127.561 25.3469 126.622 25.7728Z" fill="url(#paint14_linear_375_750)"/>
<path d="M150.096 1.72074C150.498 2.0708 151.107 2.02272 151.458 1.61334C151.808 1.20396 151.766 0.588313 151.364 0.238251C150.962 -0.111811 150.352 -0.0637261 150.002 0.345651C149.652 0.755028 149.694 1.37068 150.096 1.72074Z" fill="url(#paint15_linear_375_750)"/>
<path d="M149.792 47.7538C150.194 48.1038 150.801 48.0585 151.148 47.6526C151.496 47.2466 151.451 46.6338 151.049 46.2837C150.647 45.9336 150.04 45.9789 149.693 46.3849C149.345 46.7908 149.39 47.4037 149.792 47.7538Z" fill="url(#paint16_linear_375_750)"/>
<path d="M120.155 42.5785C119.811 42.9802 119.265 42.9184 118.824 42.5342C118.383 42.15 118.213 41.5891 118.557 41.1874C118.901 40.7857 119.537 40.7714 119.978 41.1556C120.419 41.5398 120.498 42.1768 120.155 42.5785Z" fill="url(#paint17_linear_375_750)"/>
<path d="M107.853 14.301C107.377 14.8577 106.639 14.7886 106.052 14.2775C105.465 13.7663 105.251 13.007 105.727 12.4503C106.204 11.8936 107.066 11.8566 107.652 12.3675C108.239 12.8784 108.329 13.7443 107.853 14.301Z" fill="url(#paint18_linear_375_750)"/>
<defs>
<linearGradient id="paint0_linear_375_750" x1="140" y1="1.30385e-06" x2="125" y2="98" gradientUnits="userSpaceOnUse">
<stop stop-color="white"/>
<stop offset="1" stop-color="#1D2432"/>
</linearGradient>
<linearGradient id="paint1_linear_375_750" x1="140" y1="1.30385e-06" x2="125" y2="98" gradientUnits="userSpaceOnUse">
<stop stop-color="white"/>
<stop offset="1" stop-color="#1D2432"/>
</linearGradient>
<linearGradient id="paint2_linear_375_750" x1="140" y1="1.30385e-06" x2="125" y2="98" gradientUnits="userSpaceOnUse">
<stop stop-color="white"/>
<stop offset="1" stop-color="#1D2432"/>
</linearGradient>
<linearGradient id="paint3_linear_375_750" x1="140" y1="1.30385e-06" x2="125" y2="98" gradientUnits="userSpaceOnUse">
<stop stop-color="white"/>
<stop offset="1" stop-color="#1D2432"/>
</linearGradient>
<linearGradient id="paint4_linear_375_750" x1="140" y1="1.30385e-06" x2="125" y2="98" gradientUnits="userSpaceOnUse">
<stop stop-color="white"/>
<stop offset="1" stop-color="#1D2432"/>
</linearGradient>
<linearGradient id="paint5_linear_375_750" x1="140" y1="1.30385e-06" x2="125" y2="98" gradientUnits="userSpaceOnUse">
<stop stop-color="white"/>
<stop offset="1" stop-color="#1D2432"/>
</linearGradient>
<linearGradient id="paint6_linear_375_750" x1="140" y1="1.30385e-06" x2="125" y2="98" gradientUnits="userSpaceOnUse">
<stop stop-color="white"/>
<stop offset="1" stop-color="#1D2432"/>
</linearGradient>
<linearGradient id="paint7_linear_375_750" x1="140" y1="1.30385e-06" x2="125" y2="98" gradientUnits="userSpaceOnUse">
<stop stop-color="white"/>
<stop offset="1" stop-color="#1D2432"/>
</linearGradient>
<linearGradient id="paint8_linear_375_750" x1="140" y1="1.30385e-06" x2="125" y2="98" gradientUnits="userSpaceOnUse">
<stop stop-color="white"/>
<stop offset="1" stop-color="#1D2432"/>
</linearGradient>
<linearGradient id="paint9_linear_375_750" x1="140" y1="1.30385e-06" x2="125" y2="98" gradientUnits="userSpaceOnUse">
<stop stop-color="white"/>
<stop offset="1" stop-color="#1D2432"/>
</linearGradient>
<linearGradient id="paint10_linear_375_750" x1="140" y1="1.30385e-06" x2="125" y2="98" gradientUnits="userSpaceOnUse">
<stop stop-color="white"/>
<stop offset="1" stop-color="#1D2432"/>
</linearGradient>
<linearGradient id="paint11_linear_375_750" x1="140" y1="1.30385e-06" x2="125" y2="98" gradientUnits="userSpaceOnUse">
<stop stop-color="white"/>
<stop offset="1" stop-color="#1D2432"/>
</linearGradient>
<linearGradient id="paint12_linear_375_750" x1="140" y1="1.30385e-06" x2="125" y2="98" gradientUnits="userSpaceOnUse">
<stop stop-color="white"/>
<stop offset="1" stop-color="#1D2432"/>
</linearGradient>
<linearGradient id="paint13_linear_375_750" x1="140" y1="1.30385e-06" x2="125" y2="98" gradientUnits="userSpaceOnUse">
<stop stop-color="white"/>
<stop offset="1" stop-color="#1D2432"/>
</linearGradient>
<linearGradient id="paint14_linear_375_750" x1="140" y1="1.30385e-06" x2="125" y2="98" gradientUnits="userSpaceOnUse">
<stop stop-color="white"/>
<stop offset="1" stop-color="#1D2432"/>
</linearGradient>
<linearGradient id="paint15_linear_375_750" x1="140" y1="1.30385e-06" x2="125" y2="98" gradientUnits="userSpaceOnUse">
<stop stop-color="white"/>
<stop offset="1" stop-color="#1D2432"/>
</linearGradient>
<linearGradient id="paint16_linear_375_750" x1="140" y1="1.30385e-06" x2="125" y2="98" gradientUnits="userSpaceOnUse">
<stop stop-color="white"/>
<stop offset="1" stop-color="#1D2432"/>
</linearGradient>
<linearGradient id="paint17_linear_375_750" x1="140" y1="1.30385e-06" x2="125" y2="98" gradientUnits="userSpaceOnUse">
<stop stop-color="white"/>
<stop offset="1" stop-color="#1D2432"/>
</linearGradient>
<linearGradient id="paint18_linear_375_750" x1="140" y1="1.30385e-06" x2="125" y2="98" gradientUnits="userSpaceOnUse">
<stop stop-color="white"/>
<stop offset="1" stop-color="#1D2432"/>
</linearGradient>
</defs>
</svg>
