<svg width="380" height="65" viewBox="0 0 380 65" fill="none" xmlns="http://www.w3.org/2000/svg">
<path d="M7.71839 24.2767V39.8156H15.4368C16.4946 39.8156 17.4896 39.6171 18.4219 39.22C19.3542 38.8049 20.17 38.2455 20.8692 37.5416C21.5685 36.8378 22.1153 36.0166 22.5097 35.0781C22.9221 34.1216 23.1283 33.1109 23.1283 32.0461C23.1283 30.9813 22.9221 29.9797 22.5097 29.0412C22.1153 28.0847 21.5685 27.2545 20.8692 26.5507C20.17 25.8468 19.3542 25.2964 18.4219 24.8993C17.4896 24.4842 16.4946 24.2767 15.4368 24.2767H7.71839ZM7.71839 55.3274H0V16.5072H15.4368C16.8532 16.5072 18.2158 16.6967 19.5246 17.0757C20.8334 17.4367 22.0525 17.96 23.1821 18.6458C24.3295 19.3136 25.3694 20.1257 26.3017 21.0823C27.2519 22.0207 28.0587 23.0675 28.7221 24.2225C29.4034 25.3776 29.9233 26.6138 30.2819 27.9313C30.6584 29.2488 30.8467 30.6204 30.8467 32.0461C30.8467 34.1757 30.4433 36.188 29.6365 38.083C28.8297 39.96 27.727 41.6023 26.3286 43.01C24.9301 44.4177 23.2896 45.5276 21.4071 46.3398C19.5425 47.1519 17.5524 47.558 15.4368 47.558H7.71839V55.3274Z" fill="url(#paint0_linear_202_963)"/>
<path d="M62.3926 55.3274H35.3916V16.5072H43.11V47.558H62.3926V55.3274Z" fill="url(#paint1_linear_202_963)"/>
<path d="M89.1245 39.8156V32.0461C89.1245 30.9813 88.9184 29.9797 88.506 29.0412C88.1116 28.0847 87.5647 27.2545 86.8655 26.5507C86.1663 25.8468 85.3416 25.2964 84.3913 24.8993C83.459 24.4842 82.464 24.2767 81.4062 24.2767C80.3484 24.2767 79.3443 24.4842 78.3941 24.8993C77.4618 25.2964 76.646 25.8468 75.9468 26.5507C75.2476 27.2545 74.6918 28.0847 74.2794 29.0412C73.885 29.9797 73.6878 30.9813 73.6878 32.0461V39.8156H89.1245ZM96.8429 55.3274H89.1245V47.558H73.6878V55.3274H65.9963V32.0461C65.9963 29.8985 66.3997 27.8862 67.2065 26.0092C68.0133 24.1142 69.1069 22.4629 70.4875 21.0552C71.8859 19.6475 73.5174 18.5376 75.3821 17.7254C77.2646 16.9133 79.2726 16.5072 81.4062 16.5072C83.5397 16.5072 85.5388 16.9133 87.4034 17.7254C89.2859 18.5376 90.9264 19.6475 92.3249 21.0552C93.7233 22.4629 94.8259 24.1142 95.6327 26.0092C96.4395 27.8862 96.8429 29.8985 96.8429 32.0461V55.3274Z" fill="url(#paint2_linear_202_963)"/>
<path d="M120.455 55.3274H112.764V43.1724C111.061 42.7393 109.492 42.0445 108.057 41.0879C106.641 40.1314 105.422 38.9944 104.4 37.677C103.378 36.3414 102.58 34.8706 102.006 33.2643C101.451 31.6401 101.173 29.9346 101.173 28.1479V16.5072H108.891V28.1479C108.891 29.2127 109.088 30.2233 109.483 31.1799C109.895 32.1183 110.451 32.9395 111.15 33.6433C111.849 34.3472 112.665 34.9067 113.597 35.3218C114.548 35.7188 115.552 35.9173 116.61 35.9173C117.667 35.9173 118.662 35.7188 119.595 35.3218C120.545 34.9067 121.37 34.3472 122.069 33.6433C122.768 32.9395 123.315 32.1183 123.709 31.1799C124.122 30.2233 124.328 29.2127 124.328 28.1479V16.5072H132.019V28.1479C132.019 29.9346 131.733 31.6401 131.159 33.2643C130.603 34.8706 129.814 36.3414 128.792 37.677C127.77 38.9944 126.551 40.1314 125.135 41.0879C123.718 42.0445 122.159 42.7393 120.455 43.1724V55.3274Z" fill="url(#paint3_linear_202_963)"/>
<path d="M229.559 24.2767V39.8156H237.277C238.335 39.8156 239.33 39.6171 240.262 39.22C241.194 38.8049 242.01 38.2455 242.709 37.5416C243.409 36.8378 243.956 36.0166 244.35 35.0781C244.762 34.1216 244.969 33.1109 244.969 32.0461C244.969 30.9813 244.762 29.9797 244.35 29.0412C243.956 28.0847 243.409 27.2545 242.709 26.5507C242.01 25.8468 241.194 25.2964 240.262 24.8993C239.33 24.4842 238.335 24.2767 237.277 24.2767H229.559ZM229.559 55.3274H221.84V16.5072H237.277C238.693 16.5072 240.056 16.6967 241.365 17.0757C242.674 17.4367 243.893 17.96 245.022 18.6458C246.17 19.3136 247.21 20.1257 248.142 21.0823C249.092 22.0207 249.899 23.0675 250.562 24.2225C251.244 25.3776 251.764 26.6138 252.122 27.9313C252.499 29.2488 252.687 30.6204 252.687 32.0461C252.687 34.1757 252.283 36.188 251.477 38.083C250.67 39.96 249.567 41.6023 248.169 43.01C246.77 44.4177 245.13 45.5276 243.247 46.3398C241.383 47.1519 239.393 47.558 237.277 47.558H229.559V55.3274Z" fill="url(#paint4_linear_202_963)"/>
<path d="M264.95 24.2767V39.8156H272.669C273.726 39.8156 274.722 39.6171 275.654 39.22C276.586 38.8049 277.402 38.2455 278.101 37.5416C278.8 36.8378 279.347 36.0166 279.742 35.0781C280.154 34.1216 280.36 33.1109 280.36 32.0461C280.36 30.9813 280.154 29.9797 279.742 29.0412C279.347 28.0847 278.8 27.2545 278.101 26.5507C277.402 25.8468 276.586 25.2964 275.654 24.8993C274.722 24.4842 273.726 24.2767 272.669 24.2767H264.95ZM264.95 55.3274H257.232V16.5072H272.669C274.085 16.5072 275.448 16.6967 276.756 17.0757C278.065 17.4367 279.284 17.96 280.414 18.6458C281.561 19.3136 282.601 20.1257 283.534 21.0823C284.484 22.0207 285.291 23.0675 285.954 24.2225C286.635 25.3776 287.155 26.6138 287.514 27.9313C287.89 29.2488 288.079 30.6204 288.079 32.0461C288.079 33.3817 287.908 34.6811 287.568 35.9444C287.245 37.2077 286.77 38.4079 286.142 39.5449C285.533 40.6819 284.78 41.7286 283.883 42.6852C282.987 43.6417 281.983 44.4719 280.871 45.1757L285.147 55.3274H276.945L273.583 47.5038L264.95 47.558V55.3274Z" fill="url(#paint5_linear_202_963)"/>
<path d="M300.88 55.3274H293.161V16.5072H300.88V55.3274Z" fill="url(#paint6_linear_202_963)"/>
<path d="M305.801 28.1479C305.801 26.5416 306.106 25.0347 306.716 23.627C307.325 22.2193 308.15 20.992 309.19 19.9453C310.248 18.8805 311.476 18.0413 312.874 17.4276C314.273 16.814 315.77 16.5072 317.365 16.5072H335.061V24.2767H317.365C316.828 24.2767 316.326 24.3759 315.859 24.5745C315.393 24.773 314.981 25.0527 314.622 25.4137C314.282 25.7566 314.013 26.1626 313.815 26.6319C313.618 27.1011 313.52 27.6064 313.52 28.1479C313.52 28.6893 313.618 29.2036 313.815 29.6909C314.013 30.1602 314.282 30.5753 314.622 30.9362C314.981 31.2791 315.393 31.5498 315.859 31.7484C316.326 31.9469 316.828 32.0461 317.365 32.0461H325.084C326.679 32.0461 328.177 32.3529 329.575 32.9666C330.991 33.5621 332.219 34.3923 333.259 35.4571C334.317 36.5039 335.142 37.7401 335.734 39.1659C336.343 40.5736 336.648 42.0806 336.648 43.6868C336.648 45.293 336.343 46.8 335.734 48.2077C335.142 49.6154 334.317 50.8517 333.259 51.9165C332.219 52.9632 330.991 53.7934 329.575 54.407C328.177 55.0206 326.679 55.3274 325.084 55.3274H307.953V47.558H325.084C325.622 47.558 326.124 47.4587 326.59 47.2602C327.056 47.0617 327.459 46.791 327.8 46.4481C328.159 46.0871 328.436 45.672 328.634 45.2028C328.831 44.7335 328.93 44.2282 328.93 43.6868C328.93 43.1454 328.831 42.64 328.634 42.1708C328.436 41.7016 328.159 41.2955 327.8 40.9526C327.459 40.5916 327.056 40.3119 326.59 40.1134C326.124 39.9149 325.622 39.8156 325.084 39.8156H317.365C315.77 39.8156 314.273 39.5088 312.874 38.8952C311.476 38.2816 310.248 37.4514 309.19 36.4046C308.15 35.3398 307.325 34.1036 306.716 32.6958C306.106 31.2701 305.801 29.7541 305.801 28.1479Z" fill="url(#paint7_linear_202_963)"/>
<path d="M380 55.3274H372.309V27.6064C372.309 27.065 372.201 26.5597 371.986 26.0905C371.789 25.6212 371.511 25.2151 371.152 24.8722C370.811 24.5113 370.408 24.2316 369.942 24.033C369.476 23.8345 368.974 23.7353 368.436 23.7353C367.898 23.7353 367.396 23.8345 366.93 24.033C366.464 24.2316 366.051 24.5113 365.693 24.8722C365.352 25.2151 365.083 25.6212 364.886 26.0905C364.689 26.5597 364.59 27.065 364.59 27.6064V55.3274H356.872V27.6064C356.872 27.065 356.773 26.5597 356.576 26.0905C356.379 25.6212 356.101 25.2151 355.742 24.8722C355.402 24.5113 354.998 24.2316 354.532 24.033C354.066 23.8345 353.564 23.7353 353.026 23.7353C352.488 23.7353 351.986 23.8345 351.52 24.033C351.054 24.2316 350.641 24.5113 350.283 24.8722C349.942 25.2151 349.673 25.6212 349.476 26.0905C349.279 26.5597 349.18 27.065 349.18 27.6064V55.3274H341.462V27.6064C341.462 26.0002 341.758 24.4932 342.349 23.0855C342.959 21.6598 343.784 20.4235 344.824 19.3768C345.881 18.312 347.109 17.4818 348.508 16.8862C349.924 16.2726 351.43 15.9658 353.026 15.9658C354.46 15.9658 355.841 16.2275 357.168 16.7509C358.494 17.2562 359.687 17.9961 360.744 18.9707C361.802 17.9961 362.985 17.2562 364.294 16.7509C365.621 16.2275 367.002 15.9658 368.436 15.9658C370.032 15.9658 371.529 16.2726 372.927 16.8862C374.343 17.4818 375.572 18.312 376.611 19.3768C377.669 20.4235 378.494 21.6598 379.086 23.0855C379.695 24.4932 380 26.0002 380 27.6064V55.3274Z" fill="url(#paint8_linear_202_963)"/>
<path d="M205.433 63.8464L204.506 64.9271C203.823 65.0821 202.629 64.9575 201.931 64.8529C199.482 64.4861 197.462 64.2076 195.021 63.7859C183.973 61.8761 173.191 59.9233 162.143 58.0147C161.737 57.6626 161.346 57.6022 160.941 57.2501C160.644 56.7131 160.378 56.0618 160.147 55.5252C154.723 43.6768 148.81 30.7467 143.412 18.8861C143.071 18.1349 143.541 18.3142 143.382 17.4777C143.691 17.1176 144.008 16.7475 144.317 16.387C144.897 16.2229 145.468 16.0648 146.049 15.9044C164.661 10.7733 183.273 5.64096 201.888 0.521501C202.743 0.28618 203.629 0.171262 204.5 0C204.956 0.395941 205.412 0.792225 205.868 1.18817C205.901 1.57809 205.966 1.96781 205.963 2.358C205.854 16.5691 205.742 30.7797 205.622 44.9906C205.569 51.276 205.496 57.5614 205.433 63.8464ZM166.608 54.4424C178.234 56.4685 189.691 58.465 201.213 60.473C201.343 43.1847 201.473 26.0473 201.603 8.66061C189.868 24.0135 178.291 39.1579 166.608 54.4424ZM198.141 6.01167C181.442 10.6154 165.01 15.146 148.474 19.7048C153.382 30.4165 158.235 41.0085 163.154 51.7461C165.38 48.8775 167.485 46.1891 169.564 43.4808C172.303 39.9118 175.018 36.3248 177.75 32.75C179.373 30.6262 181.013 28.516 182.634 26.3909C185.3 22.8937 187.951 19.3855 190.62 15.8903C192.303 13.6856 194.012 11.5001 195.699 9.29735C196.469 8.29175 197.211 7.2648 198.141 6.01167Z" fill="url(#paint9_linear_202_963)"/>
<path d="M182.855 42.9602C183.911 43.8773 185.512 43.7513 186.431 42.6789C187.351 41.6064 187.241 39.9936 186.185 39.0765C185.13 38.1595 183.529 38.2854 182.609 39.3579C181.689 40.4304 181.8 42.0432 182.855 42.9602Z" fill="url(#paint10_linear_202_963)"/>
<path d="M194.266 45.2591C195.321 46.1762 196.922 46.0502 197.842 44.9777C198.762 43.9053 198.651 42.2925 197.596 41.3754C196.54 40.4583 194.939 40.5843 194.02 41.6568C193.1 42.7292 193.21 44.342 194.266 45.2591Z" fill="url(#paint11_linear_202_963)"/>
<path d="M189.754 38.3475C190.809 39.2646 192.41 39.1386 193.33 38.0661C194.25 36.9937 194.139 35.3809 193.084 34.4638C192.028 33.5467 190.427 33.6727 189.508 34.7452C188.588 35.8176 188.698 37.4304 189.754 38.3475Z" fill="url(#paint12_linear_202_963)"/>
<path d="M187.367 49.8715C188.423 50.7885 190.024 50.6626 190.944 49.5901C191.863 48.5177 191.753 46.9049 190.697 45.9878C189.642 45.0707 188.041 45.1967 187.121 46.2691C186.202 47.3416 186.312 48.9544 187.367 49.8715Z" fill="url(#paint13_linear_202_963)"/>
<path d="M171.845 34.9007C170.921 35.3189 169.885 35.1352 169.173 34.5163C168.902 34.2813 168.678 33.9834 168.524 33.6313L166.859 29.8361L163.079 31.5489C161.805 32.1257 160.318 31.5588 159.757 30.2798C159.197 29.0009 159.774 27.4983 161.047 26.9201L164.827 25.2074L163.163 21.4122C162.603 20.1333 163.179 18.6293 164.453 18.0525C165.727 17.4756 167.212 18.0442 167.774 19.3215L169.438 23.1167L173.219 21.404C174.493 20.8271 175.98 21.3941 176.54 22.673C176.947 23.5999 176.755 24.6462 176.135 25.37C175.899 25.6448 175.601 25.874 175.251 26.0327L171.47 27.7454L173.135 31.5406C173.695 32.8195 173.119 34.3239 171.845 34.9007Z" fill="url(#paint14_linear_202_963)"/>
<path d="M203.701 2.33016C204.247 2.80421 205.074 2.73909 205.55 2.18473C206.025 1.63036 205.968 0.796673 205.422 0.322631C204.877 -0.151411 204.049 -0.0862958 203.574 0.468069C203.099 1.02243 203.156 1.85612 203.701 2.33016Z" fill="url(#paint15_linear_202_963)"/>
<path d="M203.289 64.6665C203.834 65.1406 204.659 65.0792 205.13 64.5295C205.601 63.9798 205.541 63.1499 204.996 62.6758C204.45 62.2018 203.626 62.2631 203.154 62.8129C202.683 63.3626 202.743 64.1925 203.289 64.6665Z" fill="url(#paint16_linear_202_963)"/>
<path d="M163.067 57.6584C162.601 58.2024 161.86 58.1187 161.261 57.5984C160.662 57.0781 160.433 56.3186 160.899 55.7746C161.365 55.2307 162.229 55.2113 162.828 55.7316C163.426 56.2519 163.534 57.1145 163.067 57.6584Z" fill="url(#paint17_linear_202_963)"/>
<path d="M146.372 19.3659C145.725 20.1197 144.725 20.0263 143.928 19.3341C143.131 18.6418 142.841 17.6136 143.487 16.8598C144.134 16.1059 145.303 16.0557 146.1 16.7476C146.896 17.4395 147.018 18.6121 146.372 19.3659Z" fill="url(#paint18_linear_202_963)"/>
<defs>
<linearGradient id="paint0_linear_202_963" x1="190" y1="1.76563e-06" x2="169.73" y2="132.722" gradientUnits="userSpaceOnUse">
<stop stop-color="white"/>
<stop offset="1" stop-color="#1D2432"/>
</linearGradient>
<linearGradient id="paint1_linear_202_963" x1="190" y1="1.76563e-06" x2="169.73" y2="132.722" gradientUnits="userSpaceOnUse">
<stop stop-color="white"/>
<stop offset="1" stop-color="#1D2432"/>
</linearGradient>
<linearGradient id="paint2_linear_202_963" x1="190" y1="1.76563e-06" x2="169.73" y2="132.722" gradientUnits="userSpaceOnUse">
<stop stop-color="white"/>
<stop offset="1" stop-color="#1D2432"/>
</linearGradient>
<linearGradient id="paint3_linear_202_963" x1="190" y1="1.76563e-06" x2="169.73" y2="132.722" gradientUnits="userSpaceOnUse">
<stop stop-color="white"/>
<stop offset="1" stop-color="#1D2432"/>
</linearGradient>
<linearGradient id="paint4_linear_202_963" x1="190" y1="1.76563e-06" x2="169.73" y2="132.722" gradientUnits="userSpaceOnUse">
<stop stop-color="white"/>
<stop offset="1" stop-color="#1D2432"/>
</linearGradient>
<linearGradient id="paint5_linear_202_963" x1="190" y1="1.76563e-06" x2="169.73" y2="132.722" gradientUnits="userSpaceOnUse">
<stop stop-color="white"/>
<stop offset="1" stop-color="#1D2432"/>
</linearGradient>
<linearGradient id="paint6_linear_202_963" x1="190" y1="1.76563e-06" x2="169.73" y2="132.722" gradientUnits="userSpaceOnUse">
<stop stop-color="white"/>
<stop offset="1" stop-color="#1D2432"/>
</linearGradient>
<linearGradient id="paint7_linear_202_963" x1="190" y1="1.76563e-06" x2="169.73" y2="132.722" gradientUnits="userSpaceOnUse">
<stop stop-color="white"/>
<stop offset="1" stop-color="#1D2432"/>
</linearGradient>
<linearGradient id="paint8_linear_202_963" x1="190" y1="1.76563e-06" x2="169.73" y2="132.722" gradientUnits="userSpaceOnUse">
<stop stop-color="white"/>
<stop offset="1" stop-color="#1D2432"/>
</linearGradient>
<linearGradient id="paint9_linear_202_963" x1="190" y1="1.76563e-06" x2="169.73" y2="132.722" gradientUnits="userSpaceOnUse">
<stop stop-color="white"/>
<stop offset="1" stop-color="#1D2432"/>
</linearGradient>
<linearGradient id="paint10_linear_202_963" x1="190" y1="1.76563e-06" x2="169.73" y2="132.722" gradientUnits="userSpaceOnUse">
<stop stop-color="white"/>
<stop offset="1" stop-color="#1D2432"/>
</linearGradient>
<linearGradient id="paint11_linear_202_963" x1="190" y1="1.76563e-06" x2="169.73" y2="132.722" gradientUnits="userSpaceOnUse">
<stop stop-color="white"/>
<stop offset="1" stop-color="#1D2432"/>
</linearGradient>
<linearGradient id="paint12_linear_202_963" x1="190" y1="1.76563e-06" x2="169.73" y2="132.722" gradientUnits="userSpaceOnUse">
<stop stop-color="white"/>
<stop offset="1" stop-color="#1D2432"/>
</linearGradient>
<linearGradient id="paint13_linear_202_963" x1="190" y1="1.76563e-06" x2="169.73" y2="132.722" gradientUnits="userSpaceOnUse">
<stop stop-color="white"/>
<stop offset="1" stop-color="#1D2432"/>
</linearGradient>
<linearGradient id="paint14_linear_202_963" x1="190" y1="1.76563e-06" x2="169.73" y2="132.722" gradientUnits="userSpaceOnUse">
<stop stop-color="white"/>
<stop offset="1" stop-color="#1D2432"/>
</linearGradient>
<linearGradient id="paint15_linear_202_963" x1="190" y1="1.76563e-06" x2="169.73" y2="132.722" gradientUnits="userSpaceOnUse">
<stop stop-color="white"/>
<stop offset="1" stop-color="#1D2432"/>
</linearGradient>
<linearGradient id="paint16_linear_202_963" x1="190" y1="1.76563e-06" x2="169.73" y2="132.722" gradientUnits="userSpaceOnUse">
<stop stop-color="white"/>
<stop offset="1" stop-color="#1D2432"/>
</linearGradient>
<linearGradient id="paint17_linear_202_963" x1="190" y1="1.76563e-06" x2="169.73" y2="132.722" gradientUnits="userSpaceOnUse">
<stop stop-color="white"/>
<stop offset="1" stop-color="#1D2432"/>
</linearGradient>
<linearGradient id="paint18_linear_202_963" x1="190" y1="1.76563e-06" x2="169.73" y2="132.722" gradientUnits="userSpaceOnUse">
<stop stop-color="white"/>
<stop offset="1" stop-color="#1D2432"/>
</linearGradient>
</defs>
</svg>
