<svg width="27" height="27" viewBox="0 0 27 27" fill="none" xmlns="http://www.w3.org/2000/svg">
<path d="M13.5 0C15.2728 0 17.0283 0.349188 18.6662 1.02763C20.3041 1.70606 21.7924 2.70047 23.0459 3.95406C24.2995 5.20765 25.2939 6.69588 25.9724 8.33377C26.6508 9.97167 27 11.7272 27 13.5C27 17.0804 25.5777 20.5142 23.0459 23.0459C20.5142 25.5777 17.0804 27 13.5 27C7.29 27 2.0925 22.842 0.486 17.1855L5.6565 19.3185C5.83437 20.1829 6.30471 20.9596 6.9883 21.5178C7.6719 22.076 8.52697 22.3816 9.4095 22.383C11.5155 22.383 13.23 20.6685 13.23 18.5625V18.387L17.82 15.1065H17.928C20.736 15.1065 23.0175 12.825 23.0175 10.017C23.0175 7.209 20.736 4.9275 17.928 4.9275C15.12 4.9275 12.825 7.209 12.825 10.017V10.0845L9.6255 14.7555L9.4095 14.742C8.613 14.742 7.8705 14.985 7.263 15.4035L0 12.42C0.5805 5.4675 6.3855 0 13.5 0ZM8.478 20.4795C9.558 20.925 10.8 20.4255 11.2455 19.3455C11.691 18.2655 11.178 17.037 10.125 16.5915L8.397 15.876C9.0585 15.633 9.801 15.6195 10.503 15.9165C11.2185 16.2 11.772 16.7535 12.0555 17.469C12.3525 18.171 12.3525 18.954 12.0555 19.656C11.475 21.114 9.7605 21.816 8.3025 21.2085C7.6275 20.925 7.1145 20.412 6.831 19.8045L8.478 20.4795ZM21.33 10.017C21.33 11.8935 19.8045 13.419 17.928 13.419C17.0281 13.4154 16.1662 13.0554 15.5311 12.4178C14.8961 11.7802 14.5395 10.9169 14.5395 10.017C14.5377 9.57152 14.6241 9.13009 14.7938 8.71817C14.9635 8.30625 15.213 7.93199 15.528 7.61699C15.843 7.30198 16.2172 7.05245 16.6292 6.8828C17.0411 6.71314 17.4825 6.62671 17.928 6.6285C18.8279 6.62849 19.6912 6.98506 20.3288 7.62014C20.9664 8.25523 21.3264 9.11707 21.33 10.017ZM15.39 10.017C15.39 11.421 16.524 12.5685 17.9415 12.5685C19.3455 12.5685 20.4795 11.421 20.4795 10.017C20.4795 8.613 19.3455 7.4655 17.9415 7.4655C16.524 7.4655 15.39 8.613 15.39 10.017Z" fill="#777E90"/>
</svg>
