<svg width="25" height="25" viewBox="0 0 25 25" fill="none" xmlns="http://www.w3.org/2000/svg">
<path d="M21.5066 10.7975C21.5066 10.7975 23.5235 10.8999 23.5235 9.71425C23.5235 8.1655 20.8373 6.77075 20.8373 6.77075C20.8373 6.77075 21.2573 5.87825 21.5198 5.3795C21.784 4.88075 22.5216 2.93913 22.5873 2.4955C22.6686 1.93463 22.5426 1.7605 22.5426 1.7605C22.3615 2.95662 20.4129 6.4015 20.2554 6.51788C18.3558 5.62975 15.7439 5.38037 15.7439 5.38037C15.7439 5.38037 13.1871 0 10.7809 0C8.39565 0 8.40965 4.60775 8.40965 4.60775C8.40965 4.60775 7.7359 3.30137 6.88802 3.30137C5.65077 3.30137 5.2439 5.16775 5.2439 7.19512C2.80352 7.19512 0.749024 7.742 0.565274 7.79275C0.383274 7.84438 -0.194226 8.26525 0.0665237 8.21275C0.602024 8.04212 3.11152 7.65275 5.30602 7.84438C5.42852 9.76937 6.5529 12.2771 6.5529 12.2771C6.5529 12.2771 4.13965 15.7701 4.13965 18.2621C4.13965 18.9184 4.42752 20.118 6.15652 20.118C7.60902 20.118 9.24002 19.2465 9.54365 19.0724C9.27765 19.4513 9.07902 20.1792 9.07902 20.5144C9.07902 20.7882 9.24352 21.5644 10.3609 21.5644C11.7959 21.5644 13.4024 20.4636 13.4024 20.4636C13.4024 20.4636 14.9205 22.9792 16.2155 24.1307C16.5646 24.4422 16.8998 24.5 16.8998 24.5C16.8998 24.5 15.6109 23.2628 13.916 20.0699C15.491 19.0995 17.1316 16.8026 17.1316 16.8026C17.1316 16.8026 17.3268 16.8096 18.8239 16.8096C21.1689 16.8096 24.4974 16.317 24.4974 14.455C24.5009 12.5335 21.5066 10.7975 21.5066 10.7975ZM21.7665 9.639C21.7665 10.3189 21.1208 10.3127 21.1208 10.3127L20.6281 10.3425C20.6281 10.3425 19.6954 9.85425 19.1275 9.6215C19.1275 9.6215 20.006 8.27137 20.2116 7.89512C20.3648 7.98787 21.7665 8.86287 21.7665 9.639ZM11.9534 2.71075C13.0576 2.71075 14.63 5.30775 14.63 5.30775C14.63 5.30775 12.1756 5.089 10.1553 6.2755C10.2104 4.40562 10.8395 2.71075 11.9534 2.71075ZM7.5889 4.816C7.93715 4.816 8.27927 5.243 8.42277 5.60175C8.42277 5.8415 8.54527 7.23625 8.54527 7.23625L6.52227 7.1575C6.52227 5.33575 7.23715 4.816 7.5889 4.816ZM7.37715 17.4799C6.2694 17.4799 6.04365 16.8639 6.04365 16.3109C6.04365 15.0561 7.04552 13.2991 7.04552 13.2991C7.04552 13.2991 8.1699 15.6616 10.1281 16.6556C9.1569 17.2261 8.35452 17.4799 7.37715 17.4799ZM10.969 19.9509C10.1929 19.9509 10.0975 19.4486 10.0975 19.3323C10.0975 18.9735 10.381 18.5456 10.381 18.5456C10.381 18.5456 11.6839 17.6671 11.7653 17.5718L12.7295 19.3699C12.7295 19.3699 11.7451 19.9509 10.969 19.9509ZM13.3893 18.9735C12.9168 18.1493 12.5685 17.2882 12.5685 17.2882C12.5685 17.2882 14.5066 17.4108 15.5496 16.338C14.8995 16.6285 13.8644 16.9978 12.6613 16.8849C15.1769 14.6703 16.646 13.0638 17.8868 11.4056C17.7818 11.2761 17.213 10.8798 17.073 10.8141C16.3249 11.7171 13.4094 14.8304 10.7091 16.3721C7.2914 14.5093 6.5739 9.03088 6.50215 7.8925L8.36852 8.07012C8.36852 8.07012 7.66765 9.31437 7.66765 10.2296C7.66765 11.1423 7.77702 11.1904 7.77702 11.1904C7.77702 11.1904 7.75252 9.59787 8.7369 8.36762C9.4894 12.3594 10.2716 14.4034 10.8806 15.6231C11.1913 15.4936 11.7688 15.2381 11.7688 15.2381C11.7688 15.2381 10.0459 10.2708 10.1413 6.91075C10.9244 6.49425 12.0838 6.06375 13.3893 6.06375C16.828 6.06375 19.593 7.53987 19.593 7.53987L18.5124 9.051C18.5124 9.051 17.549 7.308 16.1849 6.9965C16.9024 7.53025 17.7091 8.23725 18.1265 9.25225C15.2758 8.141 11.837 7.55387 10.7328 7.4235C10.6374 7.83038 10.6514 8.41225 10.6514 8.41225C10.6514 8.41225 15.2626 9.26275 18.6183 11.1799C18.5946 15.3773 14.021 18.5999 13.3893 18.9735ZM17.7573 15.8357C17.7573 15.8357 19.1896 13.9589 19.166 11.4704C19.166 11.4704 21.4795 12.9028 21.4795 14.301C21.4795 15.8594 17.7573 15.8357 17.7573 15.8357Z" fill="#777E90"/>
</svg>
