<svg width="20" height="24" viewBox="0 0 20 24" fill="none" xmlns="http://www.w3.org/2000/svg">
<path d="M1.81699 0C0.487433 0 0 0.507726 0 1.87866V18.4401C0 18.5969 0.00797878 18.7409 0.0195843 18.8743C0.0536757 19.1751 0.0536757 19.4683 0.324956 19.7961C0.351068 19.8351 0.623799 20.042 0.623799 20.042C0.771044 20.1163 0.872593 20.171 1.0387 20.2408L9.10093 23.7326C9.51656 23.9284 9.69499 24.0109 9.99674 23.9989H10.0004C10.3057 24.0109 10.4842 23.9291 10.8998 23.7326L18.9577 20.2408C19.1281 20.171 19.2253 20.1155 19.3762 20.042C19.3762 20.042 19.6489 19.8268 19.675 19.7961C19.9471 19.4683 19.9471 19.1751 19.9804 18.8743C19.992 18.7416 20 18.5976 20 18.4446V1.87941C20 0.508476 19.5089 0.000749964 18.183 0.000749964L1.81699 0ZM14.734 3.1086H15.3904C16.4864 3.1086 17.0232 3.65983 17.0232 4.80877V6.68743H15.6936V4.88227C15.6936 4.51553 15.5311 4.34754 15.1866 4.34754H14.9603C14.6056 4.34754 14.4431 4.51553 14.4431 4.88227V10.6937C14.4431 11.0605 14.6056 11.2285 14.9603 11.2285H15.2134C15.5529 11.2285 15.7154 11.0605 15.7154 10.6937V8.61559H17.0449V10.7605C17.0449 11.9042 16.5016 12.4674 15.402 12.4674H14.734C13.6307 12.4674 13.0896 11.9004 13.0896 10.7605V4.81852C13.0896 3.67482 13.63 3.1086 14.734 3.1086ZM2.94636 3.1881H5.95728V4.46529H4.29841V7.06616H5.89707V8.34035H4.29841V11.113H5.98049V12.3909H2.94636V3.1881ZM6.63693 3.1881H8.76074C9.85965 3.1881 10.4037 3.75432 10.4037 4.89802V7.34365C10.4037 8.48734 9.85892 9.05057 8.76074 9.05057H7.99405V12.3902H6.63693V3.1881ZM11.0158 3.1881H12.3679V12.3909H11.0158V3.1881ZM7.9897 4.42554V7.81538H8.54894C8.88913 7.81538 9.05161 7.64438 9.05161 7.27615V4.96401C9.05161 4.59728 8.88913 4.42479 8.54894 4.42479L7.9897 4.42554ZM4.26069 14.5771H4.46089L4.50658 14.5853H4.57912L4.61684 14.5973H4.65455L4.68865 14.6086L4.72636 14.6168L4.7561 14.6251L4.82356 14.6408L4.862 14.6521L4.88812 14.6603L4.91786 14.6723L4.95557 14.6843L4.98169 14.6955L5.02013 14.7113L5.05422 14.727L5.08396 14.7458L5.11805 14.7615L5.14416 14.7803L5.18261 14.8005L5.21235 14.8193L5.24208 14.835L5.27182 14.8583L5.30301 14.8785L5.32913 14.9018L5.4198 14.973L5.39658 15.0038L5.37047 15.0308L5.34726 15.0585L5.32115 15.0893L5.30301 15.1163L5.2798 15.144L5.25369 15.171L5.23048 15.2018L5.21235 15.2288L5.18551 15.261L5.16302 15.288L5.13691 15.3188L5.1137 15.3465L5.09556 15.3773L5.06873 15.4043L5.04624 15.4365L5.02013 15.4635L4.99692 15.4905L4.97081 15.4718L4.94107 15.444L4.90988 15.4253L4.85402 15.3863L4.81993 15.366L4.78874 15.3473L4.75465 15.327L4.72854 15.3113L4.6988 15.2963L4.63787 15.2723L4.60015 15.2655L4.57041 15.2573L4.53632 15.249L4.49788 15.2408L4.46016 15.237H4.42244L4.3782 15.2288H4.30566L4.26794 15.2325H4.23023L4.19251 15.2445L4.16277 15.2528L4.12868 15.2648L4.09459 15.2715L4.0634 15.2873L4.02568 15.303L3.97345 15.342L3.94226 15.3608L3.91615 15.3848L3.89004 15.4035L3.8632 15.4275L3.84507 15.4545L3.81388 15.4815L3.77616 15.5363L3.75802 15.567L3.74279 15.6023L3.72466 15.63L3.70507 15.6653L3.69347 15.7005L3.67896 15.7312L3.66736 15.7702L3.66373 15.8092L3.65285 15.8452L3.64487 15.8842V15.9232L3.64124 15.9622V16.0522L3.64487 16.0912V16.122L3.6485 16.161L3.65502 16.1962L3.66663 16.227L3.67026 16.2667L3.68186 16.2975L3.69274 16.3245L3.70798 16.3635L3.72756 16.4025L3.74207 16.4302L3.77978 16.4925L3.803 16.5232L3.82113 16.551L3.85232 16.5742L3.87045 16.6012L3.89657 16.6252L3.95749 16.6725L3.98361 16.6875L4.01335 16.7077L4.04816 16.7235L4.08588 16.7385L4.11199 16.7542L4.18743 16.7774L4.22152 16.7812L4.25924 16.7932L4.29696 16.7969H4.45944L4.50513 16.7932H4.53922L4.57767 16.7774L4.61538 16.7737L4.6531 16.7624L4.68284 16.7542L4.71693 16.7385L4.74667 16.7235L4.78076 16.7077L4.80398 16.692L4.83371 16.6732V16.3252H4.30058V15.7672H5.50539V17.0174L5.47927 17.0362L5.45316 17.0594L5.42632 17.0797L5.39658 17.1029L5.36684 17.1187L5.34073 17.1427L5.2798 17.1817L5.24208 17.2004L5.18188 17.2394L5.14344 17.2552L5.1137 17.2702L5.07961 17.2859L5.00417 17.3167L4.97443 17.3324L4.90552 17.3557L4.87143 17.3639L4.83734 17.3759L4.79962 17.3879L4.76988 17.3947L4.65673 17.4187L4.62191 17.4224L4.54648 17.4307L4.50513 17.4344L4.46741 17.4374L4.42607 17.4412H4.23748L4.19976 17.4344H4.16204L4.12432 17.4262H4.09023L4.05252 17.4142L3.94226 17.3909L3.91252 17.3789L3.87843 17.3752L3.84071 17.3594L3.77181 17.3362L3.70435 17.3054L3.66663 17.2897L3.64052 17.2739L3.6028 17.2589L3.57596 17.2349L3.53824 17.2199L3.51576 17.1997L3.48602 17.1809L3.42509 17.1337L3.39535 17.1134L3.37214 17.0902L3.3424 17.0662L3.29308 17.0159L3.26696 16.9919L3.24448 16.9649L3.21764 16.9372L3.19951 16.9064L3.1763 16.8832L3.15816 16.8509L3.13495 16.8202L3.11682 16.7932L3.09723 16.7624L3.0791 16.7264L3.06387 16.6957L3.04863 16.6605L3.03413 16.6297L3.00439 16.5585L2.99278 16.5315L2.97755 16.4962L2.96957 16.461L2.96304 16.4302L2.95507 16.3912L2.94346 16.3552L2.93548 16.3162L2.93185 16.2855L2.92533 16.2465L2.91735 16.1767L2.90937 16.0987V15.8917L2.91735 15.852V15.813L2.92895 15.774V15.735L2.93983 15.6997L2.95144 15.6608L2.96667 15.591L2.97755 15.552L2.98916 15.5168L3.03485 15.411L3.04936 15.3803L3.06459 15.345L3.08418 15.309L3.09868 15.2783L3.11827 15.2513L3.15599 15.1883L3.17847 15.1575L3.20168 15.1305L3.21982 15.0998L3.26914 15.0488L3.29163 15.021L3.31846 14.994L3.34095 14.967L3.37214 14.943L3.42436 14.8958L3.4541 14.8725L3.48529 14.8523L3.51141 14.829L3.54115 14.8088L3.57234 14.7938L3.60643 14.7735L3.64414 14.7548L3.67026 14.7345L3.70798 14.7195L3.74207 14.7038L3.77616 14.685L3.80735 14.6768L3.84507 14.6648L3.87481 14.6491L3.9089 14.6423L3.94299 14.6303L3.98071 14.6221L4.0119 14.6101L4.04961 14.6018H4.08733L4.12142 14.5906H4.15914L4.19686 14.5823H4.23095L4.26069 14.5771ZM15.8554 14.5853H16.0556L16.1013 14.5936H16.1731L16.2108 14.6048H16.2521L16.2899 14.6168L16.3573 14.6326L16.395 14.6408L16.4291 14.6476L16.4676 14.6596L16.5016 14.6715L16.5314 14.6798L16.5655 14.691L16.6032 14.703L16.6329 14.7188L16.6707 14.7338L16.7055 14.7495L16.7396 14.7698L16.7657 14.7848L16.7998 14.805L16.8339 14.82L16.865 14.8403L16.8991 14.8635L16.9253 14.8838L16.9862 14.931L17.0159 14.9498L16.9927 14.9805L16.9746 15.0128L16.9521 15.0398L16.9289 15.0705L16.9107 15.1058L16.8912 15.138L16.8687 15.165L16.8455 15.1958L16.8273 15.228L16.8041 15.2588L16.786 15.2858L16.7628 15.3165L16.7446 15.3525L16.7214 15.3833L16.6989 15.4103L16.6757 15.441L16.6576 15.4733L16.6279 15.4493L16.593 15.4305L16.5669 15.4103L16.5372 15.3915L16.5031 15.3758L16.4719 15.3555L16.4378 15.3405L16.4117 15.3248L16.374 15.3098L16.3472 15.294L16.3174 15.282L16.25 15.2588L16.1745 15.2348L16.0614 15.2115L16.0236 15.2078L15.9547 15.1995H15.8757L15.8343 15.2078L15.7966 15.216L15.7625 15.2243L15.7328 15.2393L15.7059 15.255L15.6762 15.282L15.6537 15.3173L15.6385 15.3533V15.4463L15.6581 15.489L15.6726 15.513L15.6958 15.5363L15.7335 15.5565L15.7632 15.5753L15.7973 15.591L15.8351 15.606L15.8844 15.618L15.9105 15.63L15.9417 15.6383L15.9794 15.6465L16.0091 15.6578L16.0432 15.666L16.0846 15.678L16.1223 15.69L16.1636 15.7013L16.205 15.7095L16.2391 15.7215L16.2804 15.7327L16.3181 15.741L16.3522 15.7492L16.4661 15.7845L16.4958 15.7965L16.5336 15.8085L16.5677 15.8235L16.6054 15.8437L16.6808 15.8745L16.7149 15.8947L16.7758 15.9337L16.8317 15.9765L16.8665 15.9997L16.8926 16.0267L16.9187 16.059L16.9456 16.086L16.9637 16.113L16.9905 16.152L17.0087 16.1797L17.0239 16.2187L17.0384 16.242L17.05 16.281L17.0616 16.3132L17.0696 16.3485L17.0841 16.4265L17.0877 16.4655L17.0914 16.5007V16.5945L17.0877 16.6372L17.0798 16.7152L17.0718 16.7542L17.0609 16.7894L17.0529 16.8284L17.0413 16.8674L17.0304 16.9027L17.0152 16.9304L17 16.9657L16.9818 16.9964L16.9586 17.0242L16.9209 17.0864L16.8752 17.1412L16.8491 17.1599L16.8194 17.1877L16.7961 17.2109L16.7664 17.2342L16.7367 17.2499L16.7069 17.2739L16.6721 17.2927L16.6047 17.3279L16.5669 17.3437L16.5328 17.3587L16.4951 17.3707L16.461 17.3827L16.4298 17.3909L16.3544 17.4059L16.3283 17.4142L16.2906 17.4224H16.2529L16.2188 17.4307H16.181L16.1433 17.4389H15.8742L15.7611 17.4269L15.7234 17.4187L15.6893 17.4149L15.6138 17.3999L15.5725 17.3917L15.5384 17.3834L15.5007 17.3714L15.4622 17.3632L15.4281 17.3519L15.3904 17.3399L15.3527 17.3242L15.323 17.3129L15.2852 17.3009L15.2475 17.2852L15.2207 17.2702L15.183 17.2582L15.1532 17.2379L15.1155 17.2229L15.0858 17.2027L15.0589 17.1839L15.0212 17.1637L14.9951 17.1487L14.9654 17.1247L14.9356 17.1059L14.9044 17.0819L14.8783 17.0587L14.8486 17.0347L14.8217 17.0159L14.792 16.9882L14.8152 16.9574L14.8413 16.9304L14.8638 16.9027L14.8907 16.8719L14.9088 16.8449L14.932 16.8142L14.9581 16.7864L14.9806 16.7594L15.0074 16.7287L15.0256 16.701L15.0524 16.674L15.0749 16.6432L15.0981 16.6155L15.1242 16.5847L15.1423 16.5577L15.1692 16.53L15.1953 16.4992L15.2214 16.5232L15.2562 16.5465L15.2823 16.5697L15.3201 16.59L15.3462 16.6102L15.3803 16.6335L15.4115 16.6537L15.4455 16.6687L15.4717 16.689L15.5057 16.7002L15.5435 16.716L15.5747 16.7317L15.6087 16.743L15.6385 16.7587L15.6762 16.7707L15.7103 16.7819L15.748 16.7939L15.7857 16.7977L15.8205 16.8097L15.8583 16.8134H15.8996L15.9337 16.8247H16.1375L16.1716 16.8179L16.2093 16.8097L16.2354 16.8059L16.2666 16.7939L16.2928 16.7789L16.3268 16.7549L16.3464 16.728L16.3609 16.6972L16.3725 16.6612V16.5712L16.3573 16.536L16.3392 16.5052L16.316 16.482L16.2819 16.458L16.2558 16.4467L16.2217 16.431L16.1839 16.4152L16.1426 16.3965L16.1158 16.3882L16.086 16.38L16.0483 16.368L16.0222 16.3612L15.9845 16.3492L15.9468 16.3455L15.9083 16.3297L15.8706 16.326L15.8293 16.3147L15.7952 16.3065L15.7574 16.2945L15.7197 16.2862L15.682 16.275L15.6479 16.263L15.6102 16.2547L15.5805 16.2427L15.5116 16.2195L15.4738 16.2037L15.4361 16.1925L15.3607 16.1602L15.3266 16.1415L15.2889 16.1212L15.2628 16.1025L15.2279 16.0822L15.2018 16.0635L15.1677 16.0432L15.1184 15.9922L15.0923 15.969L15.0466 15.9142L15.027 15.8872L15.0125 15.8602L14.9893 15.8242L14.9784 15.7972L14.9436 15.7035L14.9371 15.6645L14.9291 15.6293V15.594L14.9211 15.555V15.3953L14.9291 15.3173L14.9371 15.285L14.9436 15.2498L14.9552 15.219L14.9632 15.18L14.9784 15.153L14.9929 15.1133L15.0082 15.0825L15.0227 15.0435L15.0423 15.0165L15.0684 14.9858L15.0879 14.9535L15.1177 14.9265L15.1402 14.8995L15.1634 14.8673L15.1975 14.8403L15.2207 14.82L15.2504 14.7968L15.3106 14.7578L15.3447 14.7375L15.4136 14.7023L15.4434 14.691L15.4775 14.679L15.5152 14.6633L15.5529 14.6521L15.5797 14.6438L15.6138 14.6356L15.6436 14.6273L15.6777 14.6191L15.7154 14.6108L15.7908 14.6041L15.8256 14.6003L15.8554 14.5853ZM6.92054 14.6123H7.60454L7.63573 14.6835L7.65024 14.7143L7.66184 14.7533L7.67708 14.7885L7.68796 14.8193L7.70754 14.8545L7.73003 14.9258L7.74961 14.961L7.77935 15.0308L7.78733 15.0615L7.84753 15.2025L7.85914 15.2378L7.87437 15.27L7.8925 15.3053L7.90048 15.3405L7.92007 15.3795L7.9266 15.4148L7.96141 15.4845L7.97592 15.5123L7.99115 15.5513L8.00276 15.5903L8.01364 15.6173L8.03322 15.6563L8.04483 15.6885L8.05933 15.7275L8.07094 15.7545L8.08617 15.7935L8.12026 15.8632L8.13114 15.8985L8.13912 15.9345L8.15435 15.9697L8.17249 16.0005L8.18772 16.0395L8.20295 16.0747L8.21383 16.1055L8.24502 16.1767L8.2559 16.212L8.27114 16.2472L8.28274 16.2825L8.29725 16.3132L8.31683 16.3492L8.33134 16.3845L8.34657 16.4152L8.35455 16.4542L8.38429 16.524L8.39952 16.5562L8.4104 16.5915L8.44159 16.6612L8.45973 16.7002L8.4677 16.731L8.48729 16.7707L8.49382 16.7977L8.50905 16.8367L8.52863 16.8757L8.54314 16.9027L8.55475 16.9417L8.56998 16.9739L8.58086 17.0129L8.60044 17.0399L8.62293 17.1179L8.63816 17.1457L8.65267 17.1847L8.67225 17.2154L8.68748 17.2544L8.69401 17.2897L8.70562 17.3204L8.72085 17.3557L8.73898 17.3879H7.9839L7.96576 17.3557L7.95416 17.3204L7.93893 17.2852L7.92442 17.2462L7.91644 17.2154L7.88525 17.1457L7.87437 17.1134L7.84463 17.0437L7.83302 17.0129L7.81779 16.9739L7.79531 16.9027L7.78007 16.8719H6.72977L6.71527 16.9072L6.70366 16.9394L6.68843 16.9784L6.67392 17.0137L6.66594 17.0444L6.65071 17.0834L6.6362 17.1142L6.6246 17.1494L6.60936 17.1817L6.59486 17.2207L6.58325 17.2477L6.56802 17.2867L6.55714 17.3257L6.54191 17.3534L6.5303 17.3924H5.78247L5.79335 17.3564L5.82454 17.2867L5.83542 17.2477L5.84702 17.2169L5.86661 17.1817L5.88112 17.1464L5.89635 17.1142L5.90433 17.0789L5.91883 17.0399L5.93842 17.0092L5.95293 16.9739L5.97614 16.9027L6.01023 16.8329L6.02183 16.7977L6.03634 16.7669L6.04795 16.731L6.09364 16.626L6.10887 16.587L6.11976 16.5562L6.13136 16.521L6.15095 16.4887L6.16545 16.4497L6.17706 16.4145L6.18866 16.3837L6.20317 16.3447L6.22275 16.317L6.23436 16.278L6.24887 16.2472L6.26047 16.212L6.2757 16.173L6.29384 16.1422L6.30544 16.1032L6.31995 16.0755L6.33156 16.0365L6.34679 15.9975L6.3613 15.9705L6.37653 15.9315L6.38813 15.8992L6.40264 15.8602L6.41425 15.8332L6.43383 15.7942L6.44834 15.7552L6.46357 15.7245L6.47155 15.6893L6.48606 15.6533L6.50564 15.618L6.52015 15.5873L6.52813 15.5483L6.54336 15.513L6.55859 15.4808L6.58833 15.411L6.59921 15.3803L6.6304 15.3023L6.64491 15.2745L6.66014 15.2355L6.67174 15.2048L6.68262 15.1658L6.69786 15.1305L6.71744 15.0998L6.73195 15.0608L6.74355 15.033L6.75516 14.994L6.76967 14.9633L6.78925 14.928L6.80086 14.889L6.81174 14.8568L6.82697 14.8178L6.84148 14.7908L6.86106 14.7518L6.87267 14.7128L6.88355 14.6858L6.89878 14.6468L6.92054 14.6123ZM9.04436 14.6326H9.79219L9.8154 14.6633L9.85312 14.7263L9.87125 14.7615L9.89084 14.7885L9.90897 14.8238L9.92855 14.8545L9.94669 14.8905L9.96627 14.9213L9.98441 14.9483L10.004 14.9835L10.0221 15.0158L10.049 15.0465L10.0598 15.0773L10.0831 15.1125L10.1012 15.1448L10.1244 15.1718L10.1396 15.207L10.1578 15.2378L10.181 15.27L10.1919 15.3008L10.2187 15.336L10.2745 15.4298L10.2898 15.4605L10.3123 15.4913L10.3318 15.522L10.35 15.558L10.4073 15.651L10.4254 15.687L10.445 15.7177L10.4675 15.687L10.4827 15.6473L10.5052 15.6203L10.5248 15.585L10.5429 15.558L10.5582 15.519L10.5843 15.4913L10.6039 15.456L10.6191 15.429L10.6372 15.3968L10.6604 15.3615L10.6786 15.3345L10.6981 15.2955L10.7163 15.2685L10.7395 15.2325L10.754 15.2055L10.7736 15.1665L10.7917 15.1433L10.8113 15.111L10.8338 15.072L10.8534 15.045L10.8679 15.0098L10.8911 14.982L10.9092 14.943L10.9288 14.9198L10.9513 14.889L10.9709 14.85L10.989 14.8223L11.0086 14.787L11.0267 14.76L11.0463 14.721L11.0688 14.6933L11.084 14.658L11.1036 14.6311H11.8631V17.4202H11.1522V15.7792L11.1341 15.807L11.1109 15.846L11.0927 15.8692L11.0695 15.9L11.055 15.939L11.0318 15.9667L11.0137 15.9937L10.9905 16.0327L10.9527 16.0875L10.9303 16.1182L10.9107 16.1572L10.8882 16.185L10.8686 16.212L10.8541 16.251L10.8309 16.278L10.8128 16.3057L10.7895 16.3447L10.7714 16.3717L10.7482 16.4025L10.7301 16.4377L10.7148 16.4655L10.6923 16.4962L10.6728 16.5315L10.6503 16.5585L10.6271 16.5907L10.6126 16.6215L10.593 16.6567L10.5705 16.6845L10.5473 16.7152L10.5328 16.7542L10.5059 16.7774L10.4914 16.8082L10.4682 16.8479L10.4501 16.8749H10.4348L10.4124 16.8397L10.3928 16.8074L10.3746 16.7722L10.3551 16.7452L10.3326 16.71L10.313 16.6792L10.2905 16.647L10.2709 16.6162L10.2528 16.581L10.2332 16.554L10.2071 16.518L10.1919 16.4872L10.1694 16.452L10.1498 16.425L10.1316 16.3897L10.1084 16.3575L10.0903 16.3185L10.0671 16.2915L10.049 16.2562L10.0294 16.224L10.0112 16.1887L9.98803 16.1617L9.9699 16.1265L9.94669 16.0957L9.93218 16.0635L9.90897 16.0327L9.89084 15.9975L9.86762 15.9705L9.84949 15.9345L9.82628 15.9037L9.81177 15.8685L9.78493 15.8415L9.77043 15.8055L9.74722 15.7747V17.4194H9.04871V14.6573L9.04436 14.6326ZM12.3984 14.6326H14.5258V15.2618H13.1048V15.711H14.3815V16.305H13.1048V16.7812H14.5439V17.4142H12.402V14.6565L12.3984 14.6326ZM7.25275 15.4875L7.24114 15.5228L7.23026 15.555L7.21503 15.594L7.1998 15.6293L7.18892 15.6645L7.15773 15.7342L7.14322 15.7732L7.13161 15.8055L7.12001 15.8445L7.1055 15.8715L7.0939 15.9105L7.07866 15.9495L7.06416 15.9772L7.05255 16.0162L7.03804 16.047L7.02644 16.086L7.00685 16.1212L6.99888 16.152L6.98437 16.191L6.96914 16.227L6.95753 16.2577L6.94302 16.2967H7.5661L7.55159 16.2577L7.53999 16.2225L7.51025 16.1512L7.49864 16.116L7.48341 16.0852L7.47253 16.0462L7.4573 16.011L7.44569 15.9757L7.43118 15.9435L7.41958 15.9082L7.40435 15.8692L7.39346 15.8385L7.36228 15.7687L7.35575 15.7327L7.34051 15.6975L7.32528 15.6585L7.3144 15.6315L7.28321 15.5535L7.27233 15.5183L7.25275 15.4875ZM6.14297 20.7103H13.8904L9.93581 22.0579L6.14297 20.7103Z" fill="#777E90"/>
</svg>
