<svg width="22" height="19" viewBox="0 0 22 19" fill="none" xmlns="http://www.w3.org/2000/svg">
<path d="M2.2 0H19.8C20.3835 0 20.9431 0.22242 21.3556 0.61833C21.7682 1.01424 22 1.55121 22 2.11111V16.8889C22 17.4488 21.7682 17.9858 21.3556 18.3817C20.9431 18.7776 20.3835 19 19.8 19H2.2C1.61652 19 1.05694 18.7776 0.644365 18.3817C0.231785 17.9858 0 17.4488 0 16.8889V2.11111C0 1.55121 0.231785 1.01424 0.644365 0.61833C1.05694 0.22242 1.61652 0 2.2 0ZM9.306 2.68111C8.745 2.68111 8.294 3.11389 8.294 3.65222V6.90333C8.294 7.16089 8.40062 7.40789 8.59041 7.59001C8.78019 7.77213 9.0376 7.87444 9.306 7.87444H12.694C12.9624 7.87444 13.2198 7.77213 13.4096 7.59001C13.5994 7.40789 13.706 7.16089 13.706 6.90333V3.65222C13.706 3.11389 13.255 2.68111 12.694 2.68111H9.306ZM9.988 3.97944H12.012C12.1024 3.97944 12.1892 4.01392 12.2531 4.07529C12.3171 4.13665 12.353 4.21988 12.353 4.30667V6.24889C12.353 6.33567 12.3171 6.4189 12.2531 6.48027C12.1892 6.54164 12.1024 6.57611 12.012 6.57611H9.988C9.89756 6.57611 9.81083 6.54164 9.74688 6.48027C9.68293 6.4189 9.647 6.33567 9.647 6.24889V4.30667C9.647 4.21988 9.68293 4.13665 9.74688 4.07529C9.81083 4.01392 9.89756 3.97944 9.988 3.97944ZM3.212 2.68111C2.9436 2.68111 2.68619 2.78342 2.49641 2.96554C2.30662 3.14766 2.2 3.39467 2.2 3.65222V6.90333C2.2 7.44167 2.651 7.87444 3.212 7.87444H5.588V6.57611H3.894C3.707 6.57611 3.553 6.42833 3.553 6.24889V4.30667C3.553 4.12722 3.707 3.97944 3.894 3.97944H5.918C6.00844 3.97944 6.09517 4.01392 6.15912 4.07529C6.22307 4.13665 6.259 4.21988 6.259 4.30667V8.20167C6.259 8.28845 6.22307 8.37168 6.15912 8.43305C6.09517 8.49441 6.00844 8.52889 5.918 8.52889H2.2V9.82722H6.6C7.15 9.82722 7.612 9.38389 7.612 8.84556V3.65222C7.612 3.39467 7.50538 3.14766 7.31559 2.96554C7.12581 2.78342 6.8684 2.68111 6.6 2.68111H3.212ZM15.4 2.68111C14.85 2.68111 14.388 3.11389 14.388 3.65222V6.90333C14.388 7.44167 14.85 7.87444 15.4 7.87444H17.765V6.57611H16.082C15.895 6.57611 15.741 6.42833 15.741 6.24889V4.30667C15.741 4.12722 15.895 3.97944 16.082 3.97944H18.106C18.293 3.97944 18.447 4.12722 18.447 4.30667V8.20167C18.447 8.38111 18.293 8.52889 18.106 8.52889H14.388V9.82722H18.788C19.349 9.82722 19.8 9.38389 19.8 8.84556V3.65222C19.8 3.11389 19.349 2.68111 18.788 2.68111H15.4ZM8.635 11.1256C8.074 11.1256 7.612 11.5583 7.612 12.0967V15.3478C7.612 15.8861 8.074 16.3189 8.635 16.3189H12.012C12.573 16.3189 13.035 15.8861 13.035 15.3478V12.0967C13.035 11.5583 12.573 11.1256 12.012 11.1256H8.635ZM9.306 12.4239H11.341C11.3862 12.4224 11.4312 12.4299 11.4733 12.4458C11.5154 12.4617 11.5536 12.4858 11.5855 12.5165C11.6175 12.5471 11.6426 12.5838 11.6592 12.6242C11.6758 12.6645 11.6835 12.7077 11.682 12.7511V14.6933C11.682 14.7801 11.6461 14.8633 11.5821 14.9247C11.5182 14.9861 11.4314 15.0206 11.341 15.0206H9.306C9.119 15.0206 8.965 14.8728 8.965 14.6933V12.7511C8.965 12.6643 9.00093 12.5811 9.06488 12.5197C9.12883 12.4584 9.21556 12.4239 9.306 12.4239ZM3.212 11.1256C2.651 11.1256 2.2 11.5583 2.2 12.0967V15.3478C2.2 15.8861 2.651 16.3189 3.212 16.3189H6.941V15.0206H3.894C3.707 15.0206 3.553 14.8728 3.553 14.6933V12.7511C3.553 12.5717 3.707 12.4239 3.894 12.4239H6.941V11.1256H3.212ZM14.718 11.1256C14.157 11.1256 13.706 11.5583 13.706 12.0967V16.3189H15.059V12.7511C15.059 12.6643 15.0949 12.5811 15.1589 12.5197C15.2228 12.4584 15.3096 12.4239 15.4 12.4239H16.082V16.3189H17.435V12.4239H18.447V16.3189H19.8V11.1256H14.718Z" fill="#777E90"/>
</svg>
