<svg width="21" height="21" viewBox="0 0 21 21" fill="none" xmlns="http://www.w3.org/2000/svg">
<path d="M12.6218 6.35C12.2018 6.63 10.8718 7.39 10.6718 7.54C10.2818 7.85 9.92179 7.83 9.53179 7.53C9.33179 7.37 8.00179 6.61 7.58179 6.34C7.10179 6.03 7.13179 5.64 7.66179 5.42C9.3018 4.73 10.9418 4.78 12.5718 5.45C13.0618 5.66 13.0818 6.05 12.6218 6.35ZM19.8418 13.63C18.9118 11.54 17.6418 9.64 16.0018 7.97C15.4947 7.44337 15.13 6.79642 14.9418 6.09C14.8418 5.76 14.7718 5.42 14.7018 5.08C14.5018 4.2 14.4118 3.3 14.0018 2.47C13.2718 0.89 12.0018 0.07 10.1618 0C8.3518 0.05 7.00179 0.81 6.21179 2.4C6.00179 2.83 5.85179 3.28 5.75179 3.74C5.58179 4.5 5.43179 5.29 5.25179 6.06C5.10179 6.71 4.8018 7.27 4.29179 7.77C2.68179 9.34 1.39179 11.14 0.411795 13.12C0.271795 13.41 0.131795 13.7 0.0417947 14C-0.148205 14.66 0.331795 15.12 1.03179 14.96C1.47179 14.87 1.91179 14.78 2.33179 14.65C2.74179 14.5 2.90179 14.6 3.00179 15C3.65179 17.15 5.07179 18.66 7.24179 19.5C11.3618 21.06 16.1718 18.84 17.2118 14.92C17.2818 14.65 17.3818 14.55 17.6818 14.65C18.1418 14.79 18.6118 14.89 19.0818 15C19.5718 15.09 19.9318 14.84 20.0018 14.36C20.0318 14.1 19.9418 13.87 19.8418 13.63Z" fill="#777E90"/>
</svg>
