<svg width="24" height="24" viewBox="0 0 24 24" fill="none" xmlns="http://www.w3.org/2000/svg">
<path d="M22.0929 17.4896C21.5409 18.7117 21.2769 19.2582 20.568 20.3382C19.5775 21.8465 18.1791 23.7286 16.4502 23.7416C14.9123 23.7545 14.5154 22.7382 12.4283 22.7548C10.3412 22.7649 9.90647 23.76 8.36678 23.7443C6.63786 23.7286 5.31416 22.0329 4.32278 20.5274C1.55078 16.3043 1.25816 11.3548 2.9714 8.72124C4.1834 6.85386 6.10155 5.75725 7.90247 5.75725C9.73663 5.75725 10.8895 6.76525 12.4062 6.76525C13.8775 6.76525 14.7739 5.75448 16.8951 5.75448C18.4994 5.75448 20.196 6.62863 21.408 8.13694C17.4425 10.3099 18.0868 15.9739 22.0929 17.4896ZM15.2852 4.06894C16.0569 3.07848 16.6422 1.68094 16.4299 0.255707C15.1708 0.341553 13.6985 1.14555 12.8382 2.18678C12.0591 3.13478 11.4129 4.5434 11.6649 5.90586C13.0385 5.95017 14.46 5.1314 15.2852 4.06894Z" fill="#777E90"/>
</svg>
