<svg width="31" height="24" viewBox="0 0 31 24" fill="none" xmlns="http://www.w3.org/2000/svg">
<path d="M11.603 0C13.7382 0.403622 16.8637 1.35058 18.5657 1.90944C22.8207 3.38422 24.2751 5.21604 24.2751 9.34541C24.2751 13.3816 21.7995 14.903 18.6431 13.3816V5.86805C18.6431 5.01423 18.4883 4.19146 17.6528 3.9586C17.0184 3.75679 16.6471 4.3467 16.6471 5.21604V24L11.603 22.3855V0ZM17.5909 20.7245L25.7141 17.8215C26.6425 17.4955 26.7817 17.0298 26.039 16.7814C25.2809 16.533 23.9347 16.6106 23.0064 16.9366L17.5909 18.8461V15.8034L17.9158 15.6947C17.9158 15.6947 19.4786 15.1048 21.6602 14.903C23.8728 14.6546 26.5651 14.934 28.6694 15.7257C31.0522 16.4864 31.3307 17.6041 30.7273 18.3648C30.1084 19.141 28.623 19.6843 28.623 19.6843L17.5909 23.643V20.7245ZM2.31931 20.414C-0.109909 19.762 -0.527673 18.2872 0.586364 17.4334C1.62304 16.6572 3.37146 16.1138 3.37146 16.1138L10.6127 13.5524V16.4709L5.41386 18.3493C4.4855 18.6753 4.34624 19.141 5.08893 19.3894C5.83162 19.6378 7.19322 19.5757 8.10612 19.2342L10.6127 18.3338V20.9573L10.1176 21.0505C7.61099 21.4541 4.94968 21.3144 2.31931 20.414Z" fill="#777E90"/>
</svg>
