<svg width="20" height="20" viewBox="0 0 20 20" fill="none" xmlns="http://www.w3.org/2000/svg">
<path d="M9.0603 0C2.8603 0 0.180299 5.53 0.180299 5.53L0.970299 6.09C0.970299 6.09 -0.019701 8 0.000299 10.4C0.000299 15.34 3.9403 20 9.7203 20C14.9803 20 19.3203 15.71 19.3203 10.41C19.3203 3.5 13.9603 0 9.0603 0ZM9.1203 1.69C13.9603 1.69 17.7203 5.6 17.7203 10.14C17.7203 14.95 14.1003 18.3 9.8803 18.3C6.7803 18.3 3.9803 15.94 3.9803 12.7C3.9803 10.82 4.9703 9.5 6.0903 8.82L6.2503 9C5.9503 9.24 5.0803 10.64 5.0803 12C5.0803 14.56 7.0803 16.33 9.6003 16.33C12.8103 16.33 14.9503 13.59 14.9503 10.41C14.9503 6.71 11.6803 3.57 7.7503 3.57C5.5803 3.57 3.7403 4.5 2.6803 5.33L2.5103 5.18C3.9003 3.04 6.3003 1.69 9.1203 1.69ZM7.6503 5.23C10.1803 5.23 12.6203 6.89 13.2403 9.25L13.0103 9.33C11.9203 7.88 10.1203 6.68 8.0003 6.68C4.0903 6.68 2.0403 10.23 2.3403 13.19L2.1103 13.28C2.1103 13.28 1.6803 12.33 1.6803 11.2C1.6803 7.93 4.3603 5.23 7.6503 5.23ZM9.3303 9.33C10.5103 9.33 11.4603 10.3 11.4603 11.44C11.4603 12.38 10.8603 12.94 10.8603 12.94L11.5703 13.45C11.5703 13.45 10.8603 14.57 9.4103 14.57C8.0203 14.57 6.7803 13.44 6.7803 11.93C6.7803 10.38 8.1203 9.33 9.3303 9.33Z" fill="#777E90"/>
</svg>
