<svg width="30" height="30" viewBox="0 0 30 30" fill="none" xmlns="http://www.w3.org/2000/svg">
<path d="M5.99747 19.3563C7.40122 16.2063 9.99747 12.5563 11.6062 10.6538C10.0462 9.09625 8.90372 8.24 8.08372 7.77875C7.10796 8.71115 6.33164 9.83194 5.80178 11.0732C5.27193 12.3145 4.99958 13.6504 5.00122 15C5.00122 16.5625 5.35872 18.04 5.99747 19.3563ZM11.0612 5.80625C13.0612 6.31375 15.0012 7.44875 15.0012 7.44875V7.4425C15.0012 7.4425 16.9412 6.3125 18.94 5.805C17.6954 5.27194 16.3552 4.99803 15.0012 5C13.6012 5 12.27 5.2875 11.0612 5.80625ZM21.9187 7.77875C21.1 8.24125 19.9587 9.0975 18.3987 10.6538C20.0075 12.5575 22.6012 16.205 24.0062 19.355C24.6629 17.9973 25.0027 16.5082 25 15C25 12.1625 23.8187 9.6 21.9187 7.77875ZM22.4287 21.6963C20.675 18.9 17.3162 15.515 15.0012 13.7663C12.6887 15.5163 9.32747 18.9013 7.57497 21.6975C8.51152 22.7382 9.65667 23.5702 10.9359 24.1391C12.2152 24.7081 13.5999 25.0014 15 25C16.4006 25.0016 17.7858 24.7083 19.0655 24.1391C20.3453 23.5699 21.4908 22.7375 22.4275 21.6963H22.4287ZM15.0012 27.5C8.09747 27.5 2.50122 21.9038 2.50122 15C2.50122 8.09625 8.09747 2.5 15.0012 2.5C21.905 2.5 27.5012 8.09625 27.5012 15C27.5012 21.9038 21.905 27.5 15.0012 27.5Z" fill="#777E90"/>
</svg>
